<svg width="1200" height="800" viewBox="0 0 1200 800" fill="none" xmlns="http://www.w3.org/2000/svg">
  <rect width="1200" height="800" fill="#F0FBF5"/>
  <rect x="64" y="64" width="1072" height="672" rx="34" fill="#122B35"/>
  <circle cx="1020" cy="170" r="128" fill="#4DB797" opacity="0.28"/>
  <circle cx="180" cy="630" r="178" fill="#5EC7A7" opacity="0.22"/>
  <rect x="168" y="128" width="310" height="544" rx="44" fill="#F7FFFB"/>
  <rect x="204" y="170" width="238" height="170" rx="26" fill="#4DB797"/>
  <rect x="226" y="196" width="122" height="14" rx="7" fill="#F7FFFB" opacity="0.78"/>
  <rect x="226" y="226" width="168" height="20" rx="10" fill="#F7FFFB"/>
  <rect x="226" y="274" width="82" height="46" rx="14" fill="#F7FFFB" opacity="0.9"/>
  <rect x="322" y="274" width="82" height="46" rx="14" fill="#F7FFFB" opacity="0.7"/>
  <rect x="204" y="372" width="238" height="86" rx="20" fill="#E4F6EF"/>
  <rect x="226" y="398" width="122" height="12" rx="6" fill="#122B35" opacity="0.86"/>
  <rect x="226" y="426" width="170" height="10" rx="5" fill="#122B35" opacity="0.32"/>
  <rect x="204" y="482" width="238" height="86" rx="20" fill="#E4F6EF"/>
  <rect x="226" y="508" width="146" height="12" rx="6" fill="#122B35" opacity="0.86"/>
  <rect x="226" y="536" width="128" height="10" rx="5" fill="#122B35" opacity="0.32"/>
  <rect x="228" y="612" width="190" height="18" rx="9" fill="#122B35" opacity="0.16"/>
  <rect x="534" y="150" width="438" height="118" rx="24" fill="#F7FFFB"/>
  <circle cx="596" cy="209" r="26" fill="#4DB797"/>
  <rect x="646" y="184" width="214" height="16" rx="8" fill="#122B35"/>
  <rect x="646" y="216" width="278" height="12" rx="6" fill="#122B35" opacity="0.34"/>
  <rect x="534" y="306" width="438" height="118" rx="24" fill="#F7FFFB"/>
  <circle cx="596" cy="365" r="26" fill="#FFCF5A"/>
  <rect x="646" y="340" width="252" height="16" rx="8" fill="#122B35"/>
  <rect x="646" y="372" width="206" height="12" rx="6" fill="#122B35" opacity="0.34"/>
  <rect x="534" y="462" width="438" height="118" rx="24" fill="#F7FFFB"/>
  <circle cx="596" cy="521" r="26" fill="#EF766F"/>
  <rect x="646" y="496" width="188" height="16" rx="8" fill="#122B35"/>
  <rect x="646" y="528" width="254" height="12" rx="6" fill="#122B35" opacity="0.34"/>
  <rect x="534" y="618" width="166" height="18" rx="9" fill="#F7FFFB" opacity="0.34"/>
  <rect x="724" y="618" width="248" height="18" rx="9" fill="#F7FFFB" opacity="0.2"/>
</svg>
