<svg width="540" height="1168" viewBox="0 0 540 1168" fill="none" xmlns="http://www.w3.org/2000/svg">
<g clip-path="url(#clip0_17_51)">
<rect width="540" height="1168" rx="8" fill="white"/>
<rect x="200.784" y="447.021" width="139.576" height="100.678" rx="9.72458" fill="#FEF2F2"/>
<rect x="200.784" y="447.021" width="139.576" height="100.678" rx="9.72458" stroke="#C95656" stroke-width="1.14407"/>
<rect x="242.542" y="469.331" width="56.0593" height="56.0593" rx="10.2966" fill="#F0CDCD"/>
<path fill-rule="evenodd" clip-rule="evenodd" d="M267.009 486.089C268.321 483.756 271.68 483.756 272.992 486.089L282.568 503.114C283.855 505.402 282.202 508.229 279.577 508.229H260.424C257.799 508.229 256.146 505.402 257.432 503.114L267.009 486.089ZM271.716 503.081C271.716 504.028 270.948 504.797 270 504.797C269.052 504.797 268.284 504.028 268.284 503.081C268.284 502.133 269.052 501.364 270 501.364C270.948 501.364 271.716 502.133 271.716 503.081ZM270 489.352C269.052 489.352 268.284 490.12 268.284 491.068V496.216C268.284 497.164 269.052 497.932 270 497.932C270.948 497.932 271.716 497.164 271.716 496.216V491.068C271.716 490.12 270.948 489.352 270 489.352Z" fill="#C95656"/>
<rect x="200.784" y="583.165" width="139.576" height="100.678" rx="9.72458" fill="#F9F9F9"/>
<rect x="200.784" y="583.165" width="139.576" height="100.678" rx="9.72458" stroke="#C4C4C4" stroke-width="1.14407"/>
<line x1="224.809" y1="582.593" x2="224.809" y2="684.415" stroke="#BDBDBD" stroke-width="1.14407"/>
<line x1="270.572" y1="582.593" x2="270.572" y2="684.415" stroke="#BDBDBD" stroke-width="1.14407"/>
<line x1="316.335" y1="582.593" x2="316.335" y2="684.415" stroke="#BDBDBD" stroke-width="1.14407"/>
<line x1="200.212" y1="664.394" x2="340.932" y2="664.394" stroke="#BDBDBD" stroke-width="1.14407"/>
<line x1="200.212" y1="633.504" x2="340.932" y2="633.504" stroke="#BDBDBD" stroke-width="1.14407"/>
<line x1="200.212" y1="602.614" x2="340.932" y2="602.614" stroke="#BDBDBD" stroke-width="1.14407"/>
<rect x="200.784" y="310.877" width="139.576" height="100.678" rx="9.72458" fill="#E7E7E7"/>
<rect x="200.784" y="310.877" width="139.576" height="100.678" rx="9.72458" stroke="#828282" stroke-width="1.14407"/>
<rect x="242.542" y="333.187" width="56.0593" height="56.0593" rx="10.2966" fill="#F1F1F1"/>
<path fill-rule="evenodd" clip-rule="evenodd" d="M259.201 348.562C258.531 347.892 257.444 347.892 256.774 348.562C256.104 349.232 256.104 350.319 256.774 350.989L280.799 375.014C281.47 375.685 282.556 375.685 283.226 375.014C283.897 374.344 283.897 373.258 283.226 372.588L280.698 370.059C283.337 367.953 285.34 365.085 286.376 361.788C284.189 354.826 277.685 349.776 270.001 349.776C267.214 349.776 264.583 350.44 262.257 351.618L259.201 348.562ZM266.513 355.874L269.111 358.472C269.395 358.397 269.693 358.356 270.001 358.356C271.896 358.356 273.433 359.893 273.433 361.788C273.433 362.096 273.392 362.394 273.316 362.678L275.914 365.276C276.518 364.254 276.865 363.061 276.865 361.788C276.865 357.997 273.792 354.924 270.001 354.924C268.727 354.924 267.535 355.27 266.513 355.874Z" fill="#CBCBCB"/>
<path d="M274.212 373.28L269.571 368.639C266.122 368.426 263.363 365.667 263.149 362.218L256.846 355.915C255.414 357.622 254.309 359.612 253.625 361.788C255.812 368.751 262.316 373.801 270 373.801C271.453 373.801 272.864 373.62 274.212 373.28Z" fill="#CBCBCB"/>
<rect x="374.682" y="310.877" width="139.576" height="100.678" rx="9.72458" fill="#E7E7E7"/>
<rect x="374.682" y="310.877" width="139.576" height="100.678" rx="9.72458" stroke="#828282" stroke-width="1.14407"/>
<rect x="416.441" y="333.187" width="56.0593" height="56.0593" rx="10.2966" fill="#F1F1F1"/>
<path fill-rule="evenodd" clip-rule="evenodd" d="M438.106 349.183C439.897 348.458 441.853 348.059 443.898 348.059C452.428 348.059 459.343 354.974 459.343 363.504C459.343 364.452 458.575 365.22 457.627 365.22C456.679 365.22 455.911 364.452 455.911 363.504C455.911 356.87 450.533 351.492 443.898 351.492C442.302 351.492 440.783 351.802 439.394 352.364C438.515 352.72 437.515 352.296 437.159 351.417C436.804 350.539 437.228 349.538 438.106 349.183ZM434.737 353.137C435.448 353.764 435.516 354.848 434.888 355.559C433.018 357.678 431.886 360.457 431.886 363.504C431.886 364.452 431.117 365.22 430.17 365.22C429.222 365.22 428.453 364.452 428.453 363.504C428.453 359.589 429.913 356.009 432.315 353.288C432.942 352.577 434.027 352.51 434.737 353.137Z" fill="#CBCBCB"/>
<path fill-rule="evenodd" clip-rule="evenodd" d="M435.318 363.504C435.318 358.765 439.16 354.924 443.898 354.924C448.637 354.924 452.479 358.765 452.479 363.504C452.479 364.452 451.711 365.22 450.763 365.22C449.815 365.22 449.047 364.452 449.047 363.504C449.047 360.661 446.742 358.356 443.898 358.356C441.055 358.356 438.75 360.661 438.75 363.504C438.75 366.383 438.159 369.127 437.089 371.619C436.715 372.49 435.706 372.893 434.835 372.52C433.964 372.146 433.561 371.137 433.935 370.266C434.824 368.193 435.318 365.909 435.318 363.504ZM450.628 366.958C451.564 367.106 452.202 367.985 452.054 368.922C451.828 370.346 451.514 371.741 451.118 373.102C450.854 374.012 449.902 374.536 448.992 374.271C448.081 374.006 447.558 373.054 447.823 372.144C448.178 370.92 448.46 369.665 448.664 368.384C448.812 367.448 449.691 366.809 450.628 366.958Z" fill="#CBCBCB"/>
<path fill-rule="evenodd" clip-rule="evenodd" d="M443.898 361.788C444.846 361.788 445.615 362.557 445.615 363.504C445.615 367.342 444.826 371 443.401 374.322C443.027 375.193 442.018 375.596 441.147 375.222C440.276 374.849 439.873 373.84 440.247 372.969C441.492 370.067 442.182 366.868 442.182 363.504C442.182 362.557 442.951 361.788 443.898 361.788Z" fill="#CBCBCB"/>
<rect x="26.8856" y="447.021" width="139.576" height="100.678" rx="9.72458" fill="#E7E7E7"/>
<rect x="26.8856" y="447.021" width="139.576" height="100.678" rx="9.72458" stroke="#828282" stroke-width="1.14407"/>
<rect x="68.6442" y="469.331" width="56.0593" height="56.0593" rx="10.2966" fill="#F1F1F1"/>
<path fill-rule="evenodd" clip-rule="evenodd" d="M96.1019 511.661C103.684 511.661 109.831 505.515 109.831 497.932C109.831 490.35 103.684 484.203 96.1019 484.203C88.5196 484.203 82.373 490.35 82.373 497.932C82.373 505.515 88.5196 511.661 96.1019 511.661ZM86.3746 494.547C87.0158 492.704 88.1659 491.1 89.6565 489.902C90.1163 490.604 90.9098 491.068 91.8116 491.068C93.2333 491.068 94.3858 492.22 94.3858 493.642V494.5C94.3858 496.396 95.9224 497.932 97.818 497.932C99.7135 497.932 101.25 496.396 101.25 494.5C101.25 492.887 102.363 491.533 103.863 491.166C105.442 492.976 106.398 495.342 106.398 497.932C106.398 498.517 106.35 499.09 106.256 499.649H104.682C102.787 499.649 101.25 501.185 101.25 503.081V506.851C99.7356 507.727 97.9771 508.229 96.1017 508.229V504.797C96.1017 502.901 94.5651 501.365 92.6695 501.365C90.774 501.365 89.2373 499.828 89.2373 497.932C89.2373 496.231 87.9991 494.818 86.3746 494.547Z" fill="#CBCBCB"/>
<rect x="374.682" y="447.021" width="139.576" height="100.678" rx="9.72458" fill="#F9F9F9"/>
<rect x="374.682" y="447.021" width="139.576" height="100.678" rx="9.72458" stroke="#C4C4C4" stroke-width="1.14407"/>
<line x1="398.708" y1="446.449" x2="398.708" y2="548.271" stroke="#BDBDBD" stroke-width="1.14407"/>
<line x1="444.47" y1="446.449" x2="444.47" y2="548.271" stroke="#BDBDBD" stroke-width="1.14407"/>
<line x1="490.233" y1="446.449" x2="490.233" y2="548.271" stroke="#BDBDBD" stroke-width="1.14407"/>
<line x1="374.11" y1="528.25" x2="514.831" y2="528.25" stroke="#BDBDBD" stroke-width="1.14407"/>
<line x1="374.11" y1="497.36" x2="514.831" y2="497.36" stroke="#BDBDBD" stroke-width="1.14407"/>
<line x1="374.11" y1="466.47" x2="514.831" y2="466.47" stroke="#BDBDBD" stroke-width="1.14407"/>
<rect x="374.682" y="583.165" width="139.576" height="100.678" rx="9.72458" fill="#F9F9F9"/>
<rect x="374.682" y="583.165" width="139.576" height="100.678" rx="9.72458" stroke="#C4C4C4" stroke-width="1.14407"/>
<line x1="398.708" y1="582.593" x2="398.708" y2="684.415" stroke="#BDBDBD" stroke-width="1.14407"/>
<line x1="444.47" y1="582.593" x2="444.47" y2="684.415" stroke="#BDBDBD" stroke-width="1.14407"/>
<line x1="490.233" y1="582.593" x2="490.233" y2="684.415" stroke="#BDBDBD" stroke-width="1.14407"/>
<line x1="374.11" y1="664.394" x2="514.831" y2="664.394" stroke="#BDBDBD" stroke-width="1.14407"/>
<line x1="374.11" y1="633.504" x2="514.831" y2="633.504" stroke="#BDBDBD" stroke-width="1.14407"/>
<line x1="374.11" y1="602.614" x2="514.831" y2="602.614" stroke="#BDBDBD" stroke-width="1.14407"/>
<rect x="26.8856" y="310.877" width="139.576" height="100.678" rx="9.72458" fill="#F9F9F9"/>
<rect x="26.8856" y="310.877" width="139.576" height="100.678" rx="9.72458" stroke="#C4C4C4" stroke-width="1.14407"/>
<line x1="50.911" y1="310.305" x2="50.911" y2="412.127" stroke="#BDBDBD" stroke-width="1.14407"/>
<line x1="96.6737" y1="310.305" x2="96.6737" y2="412.127" stroke="#BDBDBD" stroke-width="1.14407"/>
<line x1="142.436" y1="310.305" x2="142.436" y2="412.127" stroke="#BDBDBD" stroke-width="1.14407"/>
<line x1="26.3136" y1="392.106" x2="167.034" y2="392.106" stroke="#BDBDBD" stroke-width="1.14407"/>
<line x1="26.3136" y1="361.216" x2="167.034" y2="361.216" stroke="#BDBDBD" stroke-width="1.14407"/>
<line x1="26.3136" y1="330.326" x2="167.034" y2="330.326" stroke="#BDBDBD" stroke-width="1.14407"/>
<rect x="26.8856" y="583.165" width="139.576" height="100.678" rx="9.72458" fill="#F9F9F9"/>
<rect x="26.8856" y="583.165" width="139.576" height="100.678" rx="9.72458" stroke="#C4C4C4" stroke-width="1.14407"/>
<line x1="50.911" y1="582.593" x2="50.911" y2="684.415" stroke="#BDBDBD" stroke-width="1.14407"/>
<line x1="96.6737" y1="582.593" x2="96.6737" y2="684.415" stroke="#BDBDBD" stroke-width="1.14407"/>
<line x1="142.436" y1="582.593" x2="142.436" y2="684.415" stroke="#BDBDBD" stroke-width="1.14407"/>
<line x1="26.3136" y1="664.394" x2="167.034" y2="664.394" stroke="#BDBDBD" stroke-width="1.14407"/>
<line x1="26.3136" y1="633.504" x2="167.034" y2="633.504" stroke="#BDBDBD" stroke-width="1.14407"/>
<line x1="26.3136" y1="602.614" x2="167.034" y2="602.614" stroke="#BDBDBD" stroke-width="1.14407"/>
<path d="M0 292H540V715.305H0V292Z" fill="url(#paint0_radial_17_51)"/>
<path d="M76.9597 788V764.727H86.1415C87.9067 764.727 89.4105 765.064 90.6529 765.739C91.8953 766.405 92.8423 767.333 93.4938 768.523C94.1529 769.705 94.4824 771.068 94.4824 772.614C94.4824 774.159 94.1491 775.523 93.4824 776.705C92.8158 777.886 91.8498 778.807 90.5847 779.466C89.3271 780.125 87.8044 780.455 86.0165 780.455H80.1642V776.511H85.2211C86.168 776.511 86.9483 776.348 87.562 776.023C88.1832 775.689 88.6453 775.231 88.9483 774.648C89.2589 774.057 89.4142 773.379 89.4142 772.614C89.4142 771.841 89.2589 771.167 88.9483 770.591C88.6453 770.008 88.1832 769.557 87.562 769.239C86.9408 768.913 86.1529 768.75 85.1983 768.75H81.8801V788H76.9597ZM103.056 788.33C101.942 788.33 100.95 788.136 100.079 787.75C99.2076 787.356 98.5182 786.777 98.0106 786.011C97.5106 785.239 97.2606 784.277 97.2606 783.125C97.2606 782.155 97.4386 781.341 97.7947 780.682C98.1508 780.023 98.6356 779.492 99.2492 779.091C99.8629 778.689 100.56 778.386 101.34 778.182C102.128 777.977 102.954 777.833 103.817 777.75C104.833 777.644 105.651 777.545 106.272 777.455C106.893 777.356 107.344 777.212 107.624 777.023C107.905 776.833 108.045 776.553 108.045 776.182V776.114C108.045 775.394 107.817 774.837 107.363 774.443C106.916 774.049 106.28 773.852 105.454 773.852C104.583 773.852 103.889 774.045 103.374 774.432C102.859 774.811 102.518 775.288 102.352 775.864L97.8742 775.5C98.1015 774.439 98.5485 773.523 99.2151 772.75C99.8818 771.97 100.742 771.371 101.795 770.955C102.855 770.53 104.083 770.318 105.477 770.318C106.446 770.318 107.374 770.432 108.261 770.659C109.155 770.886 109.946 771.239 110.636 771.716C111.333 772.193 111.882 772.807 112.283 773.557C112.685 774.299 112.886 775.189 112.886 776.227V788H108.295V785.58H108.158C107.878 786.125 107.503 786.606 107.033 787.023C106.564 787.432 105.999 787.754 105.34 787.989C104.681 788.216 103.92 788.33 103.056 788.33ZM104.442 784.989C105.155 784.989 105.783 784.848 106.329 784.568C106.874 784.28 107.302 783.894 107.613 783.409C107.923 782.924 108.079 782.375 108.079 781.761V779.909C107.927 780.008 107.719 780.098 107.454 780.182C107.196 780.258 106.905 780.33 106.579 780.398C106.253 780.458 105.927 780.515 105.602 780.568C105.276 780.614 104.98 780.655 104.715 780.693C104.147 780.777 103.651 780.909 103.227 781.091C102.802 781.273 102.473 781.519 102.238 781.83C102.003 782.133 101.886 782.511 101.886 782.966C101.886 783.625 102.124 784.129 102.602 784.477C103.086 784.818 103.7 784.989 104.442 784.989ZM103.92 768.295L106.329 763.125H110.806L107.34 768.295H103.92ZM125.465 794.909C123.897 794.909 122.552 794.693 121.431 794.261C120.317 793.837 119.431 793.258 118.772 792.523C118.113 791.788 117.685 790.962 117.488 790.045L121.965 789.443C122.101 789.792 122.317 790.117 122.613 790.42C122.908 790.723 123.298 790.966 123.783 791.148C124.276 791.337 124.874 791.432 125.579 791.432C126.632 791.432 127.499 791.174 128.181 790.659C128.87 790.152 129.215 789.299 129.215 788.102V784.909H129.01C128.798 785.394 128.48 785.852 128.056 786.284C127.632 786.716 127.086 787.068 126.419 787.341C125.753 787.614 124.957 787.75 124.033 787.75C122.722 787.75 121.529 787.447 120.454 786.841C119.385 786.227 118.533 785.292 117.897 784.034C117.268 782.769 116.954 781.17 116.954 779.239C116.954 777.261 117.276 775.61 117.919 774.284C118.563 772.958 119.419 771.966 120.488 771.307C121.563 770.648 122.741 770.318 124.022 770.318C124.999 770.318 125.817 770.485 126.476 770.818C127.135 771.144 127.666 771.553 128.067 772.045C128.476 772.53 128.791 773.008 129.01 773.477H129.192V770.545H133.999V788.17C133.999 789.655 133.635 790.898 132.908 791.898C132.181 792.898 131.173 793.648 129.885 794.148C128.605 794.655 127.132 794.909 125.465 794.909ZM125.567 784.114C126.347 784.114 127.007 783.92 127.544 783.534C128.09 783.14 128.507 782.58 128.794 781.852C129.09 781.117 129.238 780.239 129.238 779.216C129.238 778.193 129.094 777.307 128.806 776.557C128.518 775.799 128.101 775.212 127.556 774.795C127.01 774.379 126.347 774.17 125.567 774.17C124.772 774.17 124.101 774.386 123.556 774.818C123.01 775.242 122.597 775.833 122.317 776.591C122.037 777.348 121.897 778.223 121.897 779.216C121.897 780.223 122.037 781.095 122.317 781.83C122.605 782.557 123.018 783.121 123.556 783.523C124.101 783.917 124.772 784.114 125.567 784.114ZM138.811 788V770.545H143.652V788H138.811ZM141.243 768.295C140.523 768.295 139.906 768.057 139.391 767.58C138.883 767.095 138.629 766.515 138.629 765.841C138.629 765.174 138.883 764.602 139.391 764.125C139.906 763.64 140.523 763.398 141.243 763.398C141.963 763.398 142.576 763.64 143.084 764.125C143.599 764.602 143.857 765.174 143.857 765.841C143.857 766.515 143.599 767.095 143.084 767.58C142.576 768.057 141.963 768.295 141.243 768.295ZM153.331 777.909V788H148.49V770.545H153.104V773.625H153.308C153.695 772.61 154.342 771.807 155.251 771.216C156.16 770.617 157.263 770.318 158.558 770.318C159.77 770.318 160.827 770.583 161.729 771.114C162.63 771.644 163.331 772.402 163.831 773.386C164.331 774.364 164.581 775.53 164.581 776.886V788H159.74V777.75C159.748 776.682 159.475 775.848 158.922 775.25C158.369 774.644 157.607 774.341 156.638 774.341C155.986 774.341 155.41 774.481 154.91 774.761C154.418 775.042 154.032 775.451 153.751 775.989C153.479 776.519 153.339 777.159 153.331 777.909ZM174.334 788.33C173.22 788.33 172.227 788.136 171.356 787.75C170.485 787.356 169.796 786.777 169.288 786.011C168.788 785.239 168.538 784.277 168.538 783.125C168.538 782.155 168.716 781.341 169.072 780.682C169.428 780.023 169.913 779.492 170.527 779.091C171.14 778.689 171.837 778.386 172.618 778.182C173.406 777.977 174.231 777.833 175.095 777.75C176.11 777.644 176.928 777.545 177.549 777.455C178.171 777.356 178.621 777.212 178.902 777.023C179.182 776.833 179.322 776.553 179.322 776.182V776.114C179.322 775.394 179.095 774.837 178.64 774.443C178.193 774.049 177.557 773.852 176.731 773.852C175.86 773.852 175.167 774.045 174.652 774.432C174.137 774.811 173.796 775.288 173.629 775.864L169.152 775.5C169.379 774.439 169.826 773.523 170.493 772.75C171.159 771.97 172.019 771.371 173.072 770.955C174.133 770.53 175.36 770.318 176.754 770.318C177.724 770.318 178.652 770.432 179.538 770.659C180.432 770.886 181.224 771.239 181.913 771.716C182.61 772.193 183.159 772.807 183.561 773.557C183.962 774.299 184.163 775.189 184.163 776.227V788H179.572V785.58H179.436C179.156 786.125 178.781 786.606 178.311 787.023C177.841 787.432 177.277 787.754 176.618 787.989C175.959 788.216 175.197 788.33 174.334 788.33ZM175.72 784.989C176.432 784.989 177.061 784.848 177.606 784.568C178.152 784.28 178.58 783.894 178.89 783.409C179.201 782.924 179.356 782.375 179.356 781.761V779.909C179.205 780.008 178.996 780.098 178.731 780.182C178.474 780.258 178.182 780.33 177.856 780.398C177.531 780.458 177.205 780.515 176.879 780.568C176.553 780.614 176.258 780.655 175.993 780.693C175.424 780.777 174.928 780.909 174.504 781.091C174.08 781.273 173.75 781.519 173.515 781.83C173.281 782.133 173.163 782.511 173.163 782.966C173.163 783.625 173.402 784.129 173.879 784.477C174.364 784.818 174.977 784.989 175.72 784.989ZM202.086 777.909V788H197.245V770.545H201.859V773.625H202.063C202.45 772.61 203.097 771.807 204.006 771.216C204.915 770.617 206.018 770.318 207.313 770.318C208.525 770.318 209.582 770.583 210.484 771.114C211.385 771.644 212.086 772.402 212.586 773.386C213.086 774.364 213.336 775.53 213.336 776.886V788H208.495V777.75C208.503 776.682 208.23 775.848 207.677 775.25C207.124 774.644 206.362 774.341 205.393 774.341C204.741 774.341 204.165 774.481 203.665 774.761C203.173 775.042 202.787 775.451 202.506 775.989C202.234 776.519 202.094 777.159 202.086 777.909ZM223.089 788.33C221.975 788.33 220.982 788.136 220.111 787.75C219.24 787.356 218.551 786.777 218.043 786.011C217.543 785.239 217.293 784.277 217.293 783.125C217.293 782.155 217.471 781.341 217.827 780.682C218.183 780.023 218.668 779.492 219.282 779.091C219.895 778.689 220.592 778.386 221.373 778.182C222.161 777.977 222.986 777.833 223.85 777.75C224.865 777.644 225.683 777.545 226.304 777.455C226.926 777.356 227.376 777.212 227.657 777.023C227.937 776.833 228.077 776.553 228.077 776.182V776.114C228.077 775.394 227.85 774.837 227.395 774.443C226.948 774.049 226.312 773.852 225.486 773.852C224.615 773.852 223.922 774.045 223.407 774.432C222.892 774.811 222.551 775.288 222.384 775.864L217.907 775.5C218.134 774.439 218.581 773.523 219.248 772.75C219.914 771.97 220.774 771.371 221.827 770.955C222.888 770.53 224.115 770.318 225.509 770.318C226.479 770.318 227.407 770.432 228.293 770.659C229.187 770.886 229.979 771.239 230.668 771.716C231.365 772.193 231.914 772.807 232.316 773.557C232.717 774.299 232.918 775.189 232.918 776.227V788H228.327V785.58H228.191C227.911 786.125 227.536 786.606 227.066 787.023C226.596 787.432 226.032 787.754 225.373 787.989C224.714 788.216 223.952 788.33 223.089 788.33ZM224.475 784.989C225.187 784.989 225.816 784.848 226.361 784.568C226.907 784.28 227.335 783.894 227.645 783.409C227.956 782.924 228.111 782.375 228.111 781.761V779.909C227.96 780.008 227.751 780.098 227.486 780.182C227.229 780.258 226.937 780.33 226.611 780.398C226.286 780.458 225.96 780.515 225.634 780.568C225.308 780.614 225.013 780.655 224.748 780.693C224.179 780.777 223.683 780.909 223.259 781.091C222.835 781.273 222.505 781.519 222.27 781.83C222.036 782.133 221.918 782.511 221.918 782.966C221.918 783.625 222.157 784.129 222.634 784.477C223.119 784.818 223.732 784.989 224.475 784.989ZM222.441 768.398L219.748 768.364C219.748 766.917 220.104 765.807 220.816 765.034C221.536 764.261 222.411 763.871 223.441 763.864C223.971 763.864 224.426 763.951 224.804 764.125C225.191 764.292 225.536 764.489 225.839 764.716C226.149 764.943 226.445 765.144 226.725 765.318C227.005 765.485 227.308 765.568 227.634 765.568C228.073 765.561 228.407 765.398 228.634 765.08C228.869 764.754 228.986 764.33 228.986 763.807L231.634 763.886C231.619 765.318 231.255 766.424 230.543 767.205C229.831 767.977 228.964 768.367 227.941 768.375C227.373 768.375 226.895 768.292 226.509 768.125C226.13 767.951 225.797 767.754 225.509 767.534C225.221 767.307 224.941 767.106 224.668 766.932C224.395 766.758 224.089 766.67 223.748 766.67C223.354 766.67 223.036 766.826 222.793 767.136C222.558 767.447 222.441 767.867 222.441 768.398ZM245.52 788.341C243.755 788.341 242.228 787.966 240.941 787.216C239.66 786.458 238.672 785.405 237.975 784.057C237.278 782.701 236.929 781.129 236.929 779.341C236.929 777.538 237.278 775.962 237.975 774.614C238.672 773.258 239.66 772.205 240.941 771.455C242.228 770.697 243.755 770.318 245.52 770.318C247.285 770.318 248.808 770.697 250.088 771.455C251.376 772.205 252.369 773.258 253.066 774.614C253.763 775.962 254.111 777.538 254.111 779.341C254.111 781.129 253.763 782.701 253.066 784.057C252.369 785.405 251.376 786.458 250.088 787.216C248.808 787.966 247.285 788.341 245.52 788.341ZM245.543 784.591C246.346 784.591 247.016 784.364 247.554 783.909C248.092 783.447 248.497 782.818 248.77 782.023C249.05 781.227 249.191 780.322 249.191 779.307C249.191 778.292 249.05 777.386 248.77 776.591C248.497 775.795 248.092 775.167 247.554 774.705C247.016 774.242 246.346 774.011 245.543 774.011C244.732 774.011 244.05 774.242 243.497 774.705C242.952 775.167 242.539 775.795 242.259 776.591C241.986 777.386 241.85 778.292 241.85 779.307C241.85 780.322 241.986 781.227 242.259 782.023C242.539 782.818 242.952 783.447 243.497 783.909C244.05 784.364 244.732 784.591 245.543 784.591ZM274.54 788.341C272.744 788.341 271.199 787.977 269.903 787.25C268.615 786.515 267.623 785.477 266.926 784.136C266.229 782.788 265.88 781.193 265.88 779.352C265.88 777.557 266.229 775.981 266.926 774.625C267.623 773.269 268.604 772.212 269.869 771.455C271.142 770.697 272.634 770.318 274.346 770.318C275.498 770.318 276.57 770.504 277.562 770.875C278.562 771.239 279.434 771.788 280.176 772.523C280.926 773.258 281.509 774.182 281.926 775.295C282.343 776.402 282.551 777.697 282.551 779.182V780.511H267.812V777.511H277.994C277.994 776.814 277.843 776.197 277.54 775.659C277.237 775.121 276.816 774.701 276.278 774.398C275.748 774.087 275.13 773.932 274.426 773.932C273.691 773.932 273.04 774.102 272.471 774.443C271.911 774.777 271.471 775.227 271.153 775.795C270.835 776.356 270.672 776.981 270.665 777.67V780.523C270.665 781.386 270.824 782.133 271.142 782.761C271.468 783.39 271.926 783.875 272.517 784.216C273.108 784.557 273.809 784.727 274.619 784.727C275.157 784.727 275.649 784.652 276.096 784.5C276.543 784.348 276.926 784.121 277.244 783.818C277.562 783.515 277.805 783.144 277.971 782.705L282.449 783C282.221 784.076 281.755 785.015 281.051 785.818C280.354 786.614 279.452 787.235 278.346 787.682C277.248 788.121 275.979 788.341 274.54 788.341ZM291.511 777.909V788H286.67V770.545H291.284V773.625H291.488C291.875 772.61 292.522 771.807 293.431 771.216C294.34 770.617 295.443 770.318 296.738 770.318C297.95 770.318 299.007 770.583 299.909 771.114C300.81 771.644 301.511 772.402 302.011 773.386C302.511 774.364 302.761 775.53 302.761 776.886V788H297.92V777.75C297.928 776.682 297.655 775.848 297.102 775.25C296.549 774.644 295.787 774.341 294.818 774.341C294.166 774.341 293.59 774.481 293.09 774.761C292.598 775.042 292.212 775.451 291.931 775.989C291.659 776.519 291.519 777.159 291.511 777.909ZM315.423 788.341C313.635 788.341 312.097 787.962 310.809 787.205C309.529 786.439 308.544 785.379 307.854 784.023C307.173 782.667 306.832 781.106 306.832 779.341C306.832 777.553 307.176 775.985 307.866 774.636C308.563 773.28 309.551 772.223 310.832 771.466C312.112 770.701 313.635 770.318 315.4 770.318C316.923 770.318 318.256 770.595 319.4 771.148C320.544 771.701 321.449 772.477 322.116 773.477C322.782 774.477 323.15 775.652 323.218 777H318.65C318.521 776.129 318.18 775.428 317.627 774.898C317.082 774.36 316.366 774.091 315.479 774.091C314.729 774.091 314.074 774.295 313.514 774.705C312.961 775.106 312.529 775.693 312.218 776.466C311.907 777.239 311.752 778.174 311.752 779.273C311.752 780.386 311.904 781.333 312.207 782.114C312.517 782.894 312.953 783.489 313.514 783.898C314.074 784.307 314.729 784.511 315.479 784.511C316.032 784.511 316.529 784.398 316.968 784.17C317.415 783.943 317.782 783.614 318.07 783.182C318.366 782.742 318.559 782.216 318.65 781.602H323.218C323.142 782.936 322.779 784.11 322.127 785.125C321.483 786.133 320.593 786.92 319.457 787.489C318.32 788.057 316.976 788.341 315.423 788.341ZM335.164 788.341C333.399 788.341 331.872 787.966 330.584 787.216C329.304 786.458 328.315 785.405 327.618 784.057C326.921 782.701 326.573 781.129 326.573 779.341C326.573 777.538 326.921 775.962 327.618 774.614C328.315 773.258 329.304 772.205 330.584 771.455C331.872 770.697 333.399 770.318 335.164 770.318C336.929 770.318 338.452 770.697 339.732 771.455C341.02 772.205 342.012 773.258 342.709 774.614C343.406 775.962 343.755 777.538 343.755 779.341C343.755 781.129 343.406 782.701 342.709 784.057C342.012 785.405 341.02 786.458 339.732 787.216C338.452 787.966 336.929 788.341 335.164 788.341ZM335.187 784.591C335.99 784.591 336.66 784.364 337.198 783.909C337.736 783.447 338.141 782.818 338.414 782.023C338.694 781.227 338.834 780.322 338.834 779.307C338.834 778.292 338.694 777.386 338.414 776.591C338.141 775.795 337.736 775.167 337.198 774.705C336.66 774.242 335.99 774.011 335.187 774.011C334.376 774.011 333.694 774.242 333.141 774.705C332.596 775.167 332.183 775.795 331.903 776.591C331.63 777.386 331.493 778.292 331.493 779.307C331.493 780.322 331.63 781.227 331.903 782.023C332.183 782.818 332.596 783.447 333.141 783.909C333.694 784.364 334.376 784.591 335.187 784.591ZM352.703 777.909V788H347.863V770.545H352.476V773.625H352.681C353.067 772.61 353.715 771.807 354.624 771.216C355.533 770.617 356.635 770.318 357.931 770.318C359.143 770.318 360.2 770.583 361.101 771.114C362.003 771.644 362.703 772.402 363.203 773.386C363.703 774.364 363.953 775.53 363.953 776.886V788H359.113V777.75C359.12 776.682 358.847 775.848 358.294 775.25C357.741 774.644 356.98 774.341 356.01 774.341C355.359 774.341 354.783 774.481 354.283 774.761C353.791 775.042 353.404 775.451 353.124 775.989C352.851 776.519 352.711 777.159 352.703 777.909ZM378.013 770.545V774.182H367.501V770.545H378.013ZM369.888 766.364H374.729V782.636C374.729 783.083 374.797 783.432 374.933 783.682C375.07 783.924 375.259 784.095 375.501 784.193C375.751 784.292 376.039 784.341 376.365 784.341C376.592 784.341 376.82 784.322 377.047 784.284C377.274 784.239 377.448 784.205 377.57 784.182L378.331 787.784C378.089 787.86 377.748 787.947 377.308 788.045C376.869 788.152 376.335 788.216 375.706 788.239C374.539 788.284 373.517 788.129 372.638 787.773C371.767 787.417 371.089 786.864 370.604 786.114C370.119 785.364 369.88 784.417 369.888 783.273V766.364ZM382.126 788V770.545H386.819V773.591H387.001C387.319 772.508 387.854 771.689 388.604 771.136C389.354 770.576 390.217 770.295 391.194 770.295C391.437 770.295 391.698 770.311 391.979 770.341C392.259 770.371 392.505 770.413 392.717 770.466V774.761C392.49 774.693 392.176 774.633 391.774 774.58C391.372 774.527 391.005 774.5 390.672 774.5C389.96 774.5 389.323 774.655 388.763 774.966C388.21 775.269 387.77 775.693 387.444 776.239C387.126 776.784 386.967 777.413 386.967 778.125V788H382.126ZM400.657 788.33C399.544 788.33 398.551 788.136 397.68 787.75C396.809 787.356 396.119 786.777 395.612 786.011C395.112 785.239 394.862 784.277 394.862 783.125C394.862 782.155 395.04 781.341 395.396 780.682C395.752 780.023 396.237 779.492 396.851 779.091C397.464 778.689 398.161 778.386 398.941 778.182C399.729 777.977 400.555 777.833 401.419 777.75C402.434 777.644 403.252 777.545 403.873 777.455C404.494 777.356 404.945 777.212 405.226 777.023C405.506 776.833 405.646 776.553 405.646 776.182V776.114C405.646 775.394 405.419 774.837 404.964 774.443C404.517 774.049 403.881 773.852 403.055 773.852C402.184 773.852 401.491 774.045 400.976 774.432C400.46 774.811 400.119 775.288 399.953 775.864L395.476 775.5C395.703 774.439 396.15 773.523 396.816 772.75C397.483 771.97 398.343 771.371 399.396 770.955C400.457 770.53 401.684 770.318 403.078 770.318C404.047 770.318 404.976 770.432 405.862 770.659C406.756 770.886 407.547 771.239 408.237 771.716C408.934 772.193 409.483 772.807 409.885 773.557C410.286 774.299 410.487 775.189 410.487 776.227V788H405.896V785.58H405.76C405.479 786.125 405.104 786.606 404.635 787.023C404.165 787.432 403.601 787.754 402.941 787.989C402.282 788.216 401.521 788.33 400.657 788.33ZM402.044 784.989C402.756 784.989 403.385 784.848 403.93 784.568C404.476 784.28 404.904 783.894 405.214 783.409C405.525 782.924 405.68 782.375 405.68 781.761V779.909C405.529 780.008 405.32 780.098 405.055 780.182C404.797 780.258 404.506 780.33 404.18 780.398C403.854 780.458 403.529 780.515 403.203 780.568C402.877 780.614 402.582 780.655 402.316 780.693C401.748 780.777 401.252 780.909 400.828 781.091C400.404 781.273 400.074 781.519 399.839 781.83C399.604 782.133 399.487 782.511 399.487 782.966C399.487 783.625 399.726 784.129 400.203 784.477C400.688 784.818 401.301 784.989 402.044 784.989ZM421.634 788.284C420.309 788.284 419.108 787.943 418.032 787.261C416.964 786.572 416.115 785.561 415.487 784.227C414.865 782.886 414.555 781.242 414.555 779.295C414.555 777.295 414.877 775.633 415.521 774.307C416.165 772.973 417.021 771.977 418.089 771.318C419.165 770.652 420.343 770.318 421.623 770.318C422.6 770.318 423.415 770.485 424.066 770.818C424.725 771.144 425.256 771.553 425.657 772.045C426.066 772.53 426.377 773.008 426.589 773.477H426.737V764.727H431.566V788H426.793V785.205H426.589C426.362 785.689 426.04 786.17 425.623 786.648C425.214 787.117 424.68 787.508 424.021 787.818C423.369 788.129 422.574 788.284 421.634 788.284ZM423.168 784.432C423.949 784.432 424.608 784.22 425.146 783.795C425.691 783.364 426.108 782.761 426.396 781.989C426.691 781.216 426.839 780.311 426.839 779.273C426.839 778.235 426.695 777.333 426.407 776.568C426.119 775.803 425.703 775.212 425.157 774.795C424.612 774.379 423.949 774.17 423.168 774.17C422.373 774.17 421.703 774.386 421.157 774.818C420.612 775.25 420.199 775.848 419.918 776.614C419.638 777.379 419.498 778.265 419.498 779.273C419.498 780.288 419.638 781.186 419.918 781.966C420.206 782.739 420.619 783.345 421.157 783.784C421.703 784.216 422.373 784.432 423.168 784.432ZM441.484 788.33C440.37 788.33 439.377 788.136 438.506 787.75C437.635 787.356 436.946 786.777 436.438 786.011C435.938 785.239 435.688 784.277 435.688 783.125C435.688 782.155 435.866 781.341 436.222 780.682C436.578 780.023 437.063 779.492 437.677 779.091C438.29 778.689 438.987 778.386 439.768 778.182C440.556 777.977 441.381 777.833 442.245 777.75C443.26 777.644 444.078 777.545 444.699 777.455C445.321 777.356 445.771 777.212 446.052 777.023C446.332 776.833 446.472 776.553 446.472 776.182V776.114C446.472 775.394 446.245 774.837 445.79 774.443C445.343 774.049 444.707 773.852 443.881 773.852C443.01 773.852 442.317 774.045 441.802 774.432C441.287 774.811 440.946 775.288 440.779 775.864L436.302 775.5C436.529 774.439 436.976 773.523 437.643 772.75C438.309 771.97 439.169 771.371 440.222 770.955C441.283 770.53 442.51 770.318 443.904 770.318C444.874 770.318 445.802 770.432 446.688 770.659C447.582 770.886 448.374 771.239 449.063 771.716C449.76 772.193 450.309 772.807 450.711 773.557C451.112 774.299 451.313 775.189 451.313 776.227V788H446.722V785.58H446.586C446.306 786.125 445.931 786.606 445.461 787.023C444.991 787.432 444.427 787.754 443.768 787.989C443.109 788.216 442.347 788.33 441.484 788.33ZM442.87 784.989C443.582 784.989 444.211 784.848 444.756 784.568C445.302 784.28 445.73 783.894 446.04 783.409C446.351 782.924 446.506 782.375 446.506 781.761V779.909C446.355 780.008 446.146 780.098 445.881 780.182C445.624 780.258 445.332 780.33 445.006 780.398C444.681 780.458 444.355 780.515 444.029 780.568C443.703 780.614 443.408 780.655 443.143 780.693C442.574 780.777 442.078 780.909 441.654 781.091C441.23 781.273 440.9 781.519 440.665 781.83C440.431 782.133 440.313 782.511 440.313 782.966C440.313 783.625 440.552 784.129 441.029 784.477C441.514 784.818 442.127 784.989 442.87 784.989ZM461.813 764.727L461.37 781.023H457.211L456.756 764.727H461.813ZM459.29 788.295C458.54 788.295 457.896 788.03 457.358 787.5C456.82 786.962 456.555 786.318 456.563 785.568C456.555 784.826 456.82 784.189 457.358 783.659C457.896 783.129 458.54 782.864 459.29 782.864C460.01 782.864 460.642 783.129 461.188 783.659C461.733 784.189 462.01 784.826 462.017 785.568C462.01 786.068 461.877 786.527 461.62 786.943C461.37 787.352 461.04 787.682 460.631 787.932C460.222 788.174 459.775 788.295 459.29 788.295Z" fill="#485550"/>
<path d="M96.5226 823.56H98.6363V835.117C98.6363 836.31 98.355 837.376 97.7925 838.313C97.2357 839.245 96.4488 839.981 95.4317 840.52C94.4147 841.055 93.2215 841.322 91.8522 841.322C90.4829 841.322 89.2897 841.055 88.2726 840.52C87.2556 839.981 86.4658 839.245 85.9033 838.313C85.3465 837.376 85.0681 836.31 85.0681 835.117V823.56H87.1817V834.947C87.1817 835.799 87.3692 836.557 87.7442 837.222C88.1192 837.881 88.6533 838.401 89.3465 838.782C90.0454 839.157 90.8806 839.344 91.8522 839.344C92.8238 839.344 93.659 839.157 94.3579 838.782C95.0567 838.401 95.5908 837.881 95.9601 837.222C96.3351 836.557 96.5226 835.799 96.5226 834.947V823.56ZM107.903 841.287C106.721 841.287 105.684 841.006 104.792 840.444C103.905 839.881 103.212 839.094 102.712 838.083C102.218 837.072 101.971 835.89 101.971 834.537C101.971 833.174 102.218 831.984 102.712 830.966C103.212 829.949 103.905 829.16 104.792 828.597C105.684 828.035 106.721 827.753 107.903 827.753C109.084 827.753 110.119 828.035 111.005 828.597C111.897 829.16 112.59 829.949 113.084 830.966C113.584 831.984 113.834 833.174 113.834 834.537C113.834 835.89 113.584 837.072 113.084 838.083C112.59 839.094 111.897 839.881 111.005 840.444C110.119 841.006 109.084 841.287 107.903 841.287ZM107.903 839.481C108.8 839.481 109.539 839.251 110.119 838.79C110.698 838.33 111.127 837.725 111.405 836.975C111.684 836.225 111.823 835.412 111.823 834.537C111.823 833.662 111.684 832.847 111.405 832.091C111.127 831.336 110.698 830.725 110.119 830.259C109.539 829.793 108.8 829.56 107.903 829.56C107.005 829.56 106.266 829.793 105.687 830.259C105.107 830.725 104.678 831.336 104.4 832.091C104.121 832.847 103.982 833.662 103.982 834.537C103.982 835.412 104.121 836.225 104.4 836.975C104.678 837.725 105.107 838.33 105.687 838.79C106.266 839.251 107.005 839.481 107.903 839.481ZM116.905 845.924V827.924H118.848V830.003H119.087C119.234 829.776 119.439 829.486 119.7 829.134C119.967 828.776 120.348 828.458 120.842 828.18C121.342 827.895 122.018 827.753 122.871 827.753C123.973 827.753 124.945 828.029 125.785 828.58C126.626 829.131 127.283 829.912 127.754 830.924C128.226 831.935 128.462 833.128 128.462 834.503C128.462 835.89 128.226 837.091 127.754 838.109C127.283 839.12 126.629 839.904 125.794 840.461C124.959 841.012 123.996 841.287 122.905 841.287C122.064 841.287 121.391 841.148 120.885 840.87C120.379 840.586 119.99 840.265 119.717 839.907C119.445 839.543 119.234 839.242 119.087 839.003H118.916V845.924H116.905ZM118.882 834.469C118.882 835.458 119.027 836.33 119.317 837.086C119.606 837.836 120.03 838.424 120.587 838.85C121.143 839.27 121.825 839.481 122.632 839.481C123.473 839.481 124.175 839.259 124.737 838.816C125.305 838.367 125.731 837.765 126.016 837.009C126.305 836.248 126.45 835.401 126.45 834.469C126.45 833.549 126.308 832.719 126.024 831.981C125.746 831.236 125.322 830.648 124.754 830.216C124.192 829.779 123.484 829.56 122.632 829.56C121.814 829.56 121.126 829.768 120.57 830.182C120.013 830.591 119.592 831.165 119.308 831.904C119.024 832.637 118.882 833.492 118.882 834.469ZM140.802 830.856L138.996 831.367C138.882 831.066 138.714 830.773 138.493 830.489C138.277 830.199 137.981 829.961 137.606 829.773C137.231 829.586 136.751 829.492 136.166 829.492C135.365 829.492 134.697 829.677 134.163 830.046C133.635 830.41 133.371 830.873 133.371 831.435C133.371 831.935 133.552 832.33 133.916 832.62C134.28 832.91 134.848 833.151 135.621 833.344L137.564 833.822C138.734 834.106 139.606 834.54 140.18 835.126C140.754 835.705 141.041 836.452 141.041 837.367C141.041 838.117 140.825 838.787 140.393 839.378C139.967 839.969 139.371 840.435 138.604 840.776C137.837 841.117 136.945 841.287 135.927 841.287C134.592 841.287 133.487 840.998 132.612 840.418C131.737 839.839 131.183 838.992 130.95 837.878L132.859 837.401C133.041 838.106 133.385 838.634 133.891 838.986C134.402 839.339 135.07 839.515 135.893 839.515C136.831 839.515 137.575 839.316 138.126 838.918C138.683 838.515 138.962 838.032 138.962 837.469C138.962 837.015 138.802 836.634 138.484 836.327C138.166 836.015 137.677 835.782 137.018 835.628L134.837 835.117C133.638 834.833 132.757 834.393 132.195 833.796C131.638 833.194 131.359 832.441 131.359 831.537C131.359 830.799 131.567 830.145 131.981 829.577C132.402 829.009 132.973 828.563 133.695 828.239C134.422 827.915 135.246 827.753 136.166 827.753C137.462 827.753 138.479 828.037 139.217 828.606C139.962 829.174 140.49 829.924 140.802 830.856ZM145.535 841.151C145.114 841.151 144.753 841.001 144.452 840.699C144.151 840.398 144.001 840.037 144.001 839.617C144.001 839.197 144.151 838.836 144.452 838.535C144.753 838.234 145.114 838.083 145.535 838.083C145.955 838.083 146.316 838.234 146.617 838.535C146.918 838.836 147.069 839.197 147.069 839.617C147.069 839.895 146.998 840.151 146.856 840.384C146.719 840.617 146.535 840.805 146.302 840.947C146.074 841.083 145.819 841.151 145.535 841.151ZM152.144 841.151C151.724 841.151 151.363 841.001 151.062 840.699C150.761 840.398 150.61 840.037 150.61 839.617C150.61 839.197 150.761 838.836 151.062 838.535C151.363 838.234 151.724 838.083 152.144 838.083C152.565 838.083 152.925 838.234 153.226 838.535C153.528 838.836 153.678 839.197 153.678 839.617C153.678 839.895 153.607 840.151 153.465 840.384C153.329 840.617 153.144 840.805 152.911 840.947C152.684 841.083 152.428 841.151 152.144 841.151ZM158.753 841.151C158.333 841.151 157.972 841.001 157.671 840.699C157.37 840.398 157.219 840.037 157.219 839.617C157.219 839.197 157.37 838.836 157.671 838.535C157.972 838.234 158.333 838.083 158.753 838.083C159.174 838.083 159.535 838.234 159.836 838.535C160.137 838.836 160.288 839.197 160.288 839.617C160.288 839.895 160.217 840.151 160.074 840.384C159.938 840.617 159.753 840.805 159.521 840.947C159.293 841.083 159.038 841.151 158.753 841.151ZM171.636 841.015H169.42L175.829 823.56H178.011L184.42 841.015H182.204L176.988 826.322H176.851L171.636 841.015ZM172.454 834.197H181.386V836.072H172.454V834.197ZM188.877 823.56V841.015H186.866V823.56H188.877ZM197.845 846.197C196.873 846.197 196.038 846.072 195.339 845.822C194.641 845.577 194.058 845.253 193.592 844.85C193.132 844.452 192.766 844.026 192.493 843.572L194.095 842.447C194.277 842.685 194.507 842.958 194.785 843.265C195.064 843.577 195.445 843.847 195.927 844.074C196.416 844.307 197.055 844.424 197.845 844.424C198.902 844.424 199.774 844.168 200.462 843.657C201.149 843.145 201.493 842.344 201.493 841.253V838.594H201.322C201.175 838.833 200.964 839.128 200.692 839.481C200.425 839.827 200.038 840.137 199.533 840.41C199.033 840.677 198.356 840.81 197.504 840.81C196.447 840.81 195.498 840.56 194.658 840.06C193.822 839.56 193.16 838.833 192.672 837.878C192.189 836.924 191.947 835.765 191.947 834.401C191.947 833.06 192.183 831.893 192.655 830.898C193.126 829.898 193.783 829.126 194.623 828.58C195.464 828.029 196.436 827.753 197.538 827.753C198.391 827.753 199.067 827.895 199.567 828.18C200.072 828.458 200.459 828.776 200.726 829.134C200.998 829.486 201.209 829.776 201.356 830.003H201.561V827.924H203.504V841.39C203.504 842.515 203.248 843.43 202.737 844.134C202.231 844.844 201.55 845.364 200.692 845.694C199.839 846.029 198.891 846.197 197.845 846.197ZM197.777 839.003C198.584 839.003 199.266 838.819 199.822 838.449C200.379 838.08 200.802 837.549 201.092 836.856C201.382 836.162 201.527 835.333 201.527 834.367C201.527 833.424 201.385 832.591 201.101 831.87C200.817 831.148 200.396 830.583 199.839 830.174C199.283 829.765 198.595 829.56 197.777 829.56C196.925 829.56 196.214 829.776 195.646 830.208C195.084 830.64 194.66 831.219 194.376 831.947C194.098 832.674 193.959 833.481 193.959 834.367C193.959 835.276 194.101 836.08 194.385 836.779C194.675 837.472 195.101 838.018 195.663 838.415C196.231 838.807 196.936 839.003 197.777 839.003ZM212.504 841.287C211.322 841.287 210.285 841.006 209.393 840.444C208.507 839.881 207.814 839.094 207.314 838.083C206.82 837.072 206.572 835.89 206.572 834.537C206.572 833.174 206.82 831.984 207.314 830.966C207.814 829.949 208.507 829.16 209.393 828.597C210.285 828.035 211.322 827.753 212.504 827.753C213.686 827.753 214.72 828.035 215.606 828.597C216.498 829.16 217.192 829.949 217.686 830.966C218.186 831.984 218.436 833.174 218.436 834.537C218.436 835.89 218.186 837.072 217.686 838.083C217.192 839.094 216.498 839.881 215.606 840.444C214.72 841.006 213.686 841.287 212.504 841.287ZM212.504 839.481C213.402 839.481 214.141 839.251 214.72 838.79C215.3 838.33 215.729 837.725 216.007 836.975C216.285 836.225 216.425 835.412 216.425 834.537C216.425 833.662 216.285 832.847 216.007 832.091C215.729 831.336 215.3 830.725 214.72 830.259C214.141 829.793 213.402 829.56 212.504 829.56C211.606 829.56 210.868 829.793 210.288 830.259C209.709 830.725 209.28 831.336 209.001 832.091C208.723 832.847 208.584 833.662 208.584 834.537C208.584 835.412 208.723 836.225 209.001 836.975C209.28 837.725 209.709 838.33 210.288 838.79C210.868 839.251 211.606 839.481 212.504 839.481ZM233.199 841.287C232.109 841.287 231.146 841.012 230.31 840.461C229.475 839.904 228.822 839.12 228.35 838.109C227.878 837.091 227.643 835.89 227.643 834.503C227.643 833.128 227.878 831.935 228.35 830.924C228.822 829.912 229.478 829.131 230.319 828.58C231.16 828.029 232.131 827.753 233.234 827.753C234.086 827.753 234.759 827.895 235.253 828.18C235.753 828.458 236.134 828.776 236.396 829.134C236.663 829.486 236.87 829.776 237.018 830.003H237.188V823.56H239.199V841.015H237.256V839.003H237.018C236.87 839.242 236.66 839.543 236.387 839.907C236.114 840.265 235.725 840.586 235.219 840.87C234.714 841.148 234.04 841.287 233.199 841.287ZM233.472 839.481C234.279 839.481 234.961 839.27 235.518 838.85C236.074 838.424 236.498 837.836 236.788 837.086C237.077 836.33 237.222 835.458 237.222 834.469C237.222 833.492 237.08 832.637 236.796 831.904C236.512 831.165 236.092 830.591 235.535 830.182C234.978 829.768 234.29 829.56 233.472 829.56C232.62 829.56 231.91 829.779 231.342 830.216C230.779 830.648 230.356 831.236 230.072 831.981C229.793 832.719 229.654 833.549 229.654 834.469C229.654 835.401 229.796 836.248 230.08 837.009C230.37 837.765 230.796 838.367 231.359 838.816C231.927 839.259 232.631 839.481 233.472 839.481ZM248.651 841.287C247.39 841.287 246.302 841.009 245.387 840.452C244.478 839.89 243.776 839.106 243.282 838.1C242.793 837.089 242.549 835.912 242.549 834.572C242.549 833.231 242.793 832.049 243.282 831.026C243.776 829.998 244.464 829.197 245.344 828.623C246.231 828.043 247.265 827.753 248.447 827.753C249.128 827.753 249.802 827.867 250.467 828.094C251.131 828.322 251.736 828.691 252.282 829.202C252.827 829.708 253.262 830.378 253.586 831.214C253.91 832.049 254.072 833.077 254.072 834.299V835.151H243.981V833.412H252.026C252.026 832.674 251.878 832.015 251.583 831.435C251.293 830.856 250.878 830.398 250.339 830.063C249.805 829.728 249.174 829.56 248.447 829.56C247.646 829.56 246.952 829.759 246.367 830.157C245.788 830.549 245.342 831.06 245.029 831.691C244.717 832.322 244.56 832.998 244.56 833.719V834.878C244.56 835.867 244.731 836.705 245.072 837.393C245.418 838.074 245.898 838.594 246.512 838.952C247.126 839.305 247.839 839.481 248.651 839.481C249.18 839.481 249.657 839.407 250.083 839.259C250.515 839.106 250.887 838.878 251.199 838.577C251.512 838.27 251.753 837.89 251.924 837.435L253.867 837.981C253.663 838.64 253.319 839.219 252.836 839.719C252.353 840.214 251.756 840.6 251.046 840.878C250.336 841.151 249.538 841.287 248.651 841.287ZM265.381 835.662V827.924H267.393V841.015H265.381V838.799H265.245C264.938 839.464 264.461 840.029 263.813 840.495C263.165 840.955 262.347 841.185 261.359 841.185C260.54 841.185 259.813 841.006 259.177 840.648C258.54 840.285 258.04 839.739 257.677 839.012C257.313 838.279 257.131 837.356 257.131 836.242V827.924H259.143V836.106C259.143 837.06 259.41 837.822 259.944 838.39C260.484 838.958 261.171 839.242 262.006 839.242C262.506 839.242 263.015 839.114 263.532 838.859C264.055 838.603 264.492 838.211 264.844 837.682C265.202 837.154 265.381 836.481 265.381 835.662ZM283.315 841.287C282.054 841.287 280.966 841.009 280.051 840.452C279.142 839.89 278.44 839.106 277.946 838.1C277.457 837.089 277.213 835.912 277.213 834.572C277.213 833.231 277.457 832.049 277.946 831.026C278.44 829.998 279.128 829.197 280.008 828.623C280.895 828.043 281.929 827.753 283.111 827.753C283.793 827.753 284.466 827.867 285.131 828.094C285.795 828.322 286.4 828.691 286.946 829.202C287.491 829.708 287.926 830.378 288.25 831.214C288.574 832.049 288.736 833.077 288.736 834.299V835.151H278.645V833.412H286.69C286.69 832.674 286.543 832.015 286.247 831.435C285.957 830.856 285.543 830.398 285.003 830.063C284.469 829.728 283.838 829.56 283.111 829.56C282.31 829.56 281.616 829.759 281.031 830.157C280.452 830.549 280.006 831.06 279.693 831.691C279.381 832.322 279.224 832.998 279.224 833.719V834.878C279.224 835.867 279.395 836.705 279.736 837.393C280.082 838.074 280.562 838.594 281.176 838.952C281.79 839.305 282.503 839.481 283.315 839.481C283.844 839.481 284.321 839.407 284.747 839.259C285.179 839.106 285.551 838.878 285.864 838.577C286.176 838.27 286.418 837.89 286.588 837.435L288.531 837.981C288.327 838.64 287.983 839.219 287.5 839.719C287.017 840.214 286.42 840.6 285.71 840.878C285 841.151 284.202 841.287 283.315 841.287ZM291.795 841.015V827.924H293.739V829.901H293.875C294.114 829.253 294.545 828.728 295.17 828.324C295.795 827.921 296.5 827.719 297.284 827.719C297.432 827.719 297.616 827.722 297.838 827.728C298.06 827.734 298.227 827.742 298.341 827.753V829.799C298.273 829.782 298.116 829.756 297.872 829.722C297.633 829.682 297.381 829.662 297.114 829.662C296.477 829.662 295.909 829.796 295.409 830.063C294.915 830.324 294.523 830.688 294.233 831.154C293.949 831.614 293.807 832.14 293.807 832.731V841.015H291.795ZM300.725 841.015V827.924H302.668V829.901H302.805C303.043 829.253 303.475 828.728 304.1 828.324C304.725 827.921 305.43 827.719 306.214 827.719C306.361 827.719 306.546 827.722 306.768 827.728C306.989 827.734 307.157 827.742 307.271 827.753V829.799C307.202 829.782 307.046 829.756 306.802 829.722C306.563 829.682 306.31 829.662 306.043 829.662C305.407 829.662 304.839 829.796 304.339 830.063C303.844 830.324 303.452 830.688 303.163 831.154C302.878 831.614 302.736 832.14 302.736 832.731V841.015H300.725ZM313.507 841.322C312.677 841.322 311.925 841.165 311.248 840.853C310.572 840.535 310.035 840.077 309.638 839.481C309.24 838.878 309.041 838.151 309.041 837.299C309.041 836.549 309.189 835.941 309.484 835.475C309.78 835.003 310.175 834.634 310.669 834.367C311.163 834.1 311.709 833.901 312.305 833.77C312.908 833.634 313.513 833.526 314.121 833.447C314.916 833.344 315.561 833.268 316.055 833.216C316.555 833.16 316.919 833.066 317.146 832.935C317.379 832.805 317.496 832.577 317.496 832.253V832.185C317.496 831.344 317.266 830.691 316.805 830.225C316.351 829.759 315.66 829.526 314.734 829.526C313.774 829.526 313.021 829.736 312.476 830.157C311.93 830.577 311.547 831.026 311.325 831.503L309.416 830.822C309.757 830.026 310.212 829.407 310.78 828.964C311.354 828.515 311.979 828.202 312.655 828.026C313.337 827.844 314.007 827.753 314.666 827.753C315.087 827.753 315.57 827.805 316.115 827.907C316.666 828.003 317.197 828.205 317.709 828.512C318.226 828.819 318.655 829.282 318.996 829.901C319.337 830.52 319.507 831.35 319.507 832.39V841.015H317.496V839.242H317.393C317.257 839.526 317.03 839.83 316.712 840.154C316.393 840.478 315.97 840.753 315.442 840.981C314.913 841.208 314.268 841.322 313.507 841.322ZM313.814 839.515C314.609 839.515 315.28 839.359 315.825 839.046C316.376 838.734 316.791 838.33 317.07 837.836C317.354 837.341 317.496 836.822 317.496 836.276V834.435C317.41 834.537 317.223 834.631 316.933 834.716C316.649 834.796 316.32 834.867 315.945 834.93C315.575 834.986 315.214 835.037 314.862 835.083C314.516 835.123 314.234 835.157 314.018 835.185C313.496 835.253 313.007 835.364 312.552 835.518C312.104 835.665 311.74 835.89 311.462 836.191C311.189 836.486 311.052 836.89 311.052 837.401C311.052 838.1 311.311 838.628 311.828 838.986C312.351 839.339 313.013 839.515 313.814 839.515ZM328.121 841.287C327.03 841.287 326.067 841.012 325.232 840.461C324.397 839.904 323.744 839.12 323.272 838.109C322.8 837.091 322.565 835.89 322.565 834.503C322.565 833.128 322.8 831.935 323.272 830.924C323.744 829.912 324.4 829.131 325.241 828.58C326.082 828.029 327.053 827.753 328.155 827.753C329.008 827.753 329.681 827.895 330.175 828.18C330.675 828.458 331.056 828.776 331.317 829.134C331.584 829.486 331.792 829.776 331.94 830.003H332.11V823.56H334.121V841.015H332.178V839.003H331.94C331.792 839.242 331.582 839.543 331.309 839.907C331.036 840.265 330.647 840.586 330.141 840.87C329.636 841.148 328.962 841.287 328.121 841.287ZM328.394 839.481C329.201 839.481 329.883 839.27 330.44 838.85C330.996 838.424 331.42 837.836 331.709 837.086C331.999 836.33 332.144 835.458 332.144 834.469C332.144 833.492 332.002 832.637 331.718 831.904C331.434 831.165 331.013 830.591 330.457 830.182C329.9 829.768 329.212 829.56 328.394 829.56C327.542 829.56 326.832 829.779 326.263 830.216C325.701 830.648 325.278 831.236 324.994 831.981C324.715 832.719 324.576 833.549 324.576 834.469C324.576 835.401 324.718 836.248 325.002 837.009C325.292 837.765 325.718 838.367 326.28 838.816C326.849 839.259 327.553 839.481 328.394 839.481ZM343.403 841.287C342.221 841.287 341.184 841.006 340.292 840.444C339.405 839.881 338.712 839.094 338.212 838.083C337.718 837.072 337.471 835.89 337.471 834.537C337.471 833.174 337.718 831.984 338.212 830.966C338.712 829.949 339.405 829.16 340.292 828.597C341.184 828.035 342.221 827.753 343.403 827.753C344.584 827.753 345.619 828.035 346.505 828.597C347.397 829.16 348.09 829.949 348.584 830.966C349.084 831.984 349.334 833.174 349.334 834.537C349.334 835.89 349.084 837.072 348.584 838.083C348.09 839.094 347.397 839.881 346.505 840.444C345.619 841.006 344.584 841.287 343.403 841.287ZM343.403 839.481C344.3 839.481 345.039 839.251 345.619 838.79C346.198 838.33 346.627 837.725 346.905 836.975C347.184 836.225 347.323 835.412 347.323 834.537C347.323 833.662 347.184 832.847 346.905 832.091C346.627 831.336 346.198 830.725 345.619 830.259C345.039 829.793 344.3 829.56 343.403 829.56C342.505 829.56 341.766 829.793 341.187 830.259C340.607 830.725 340.178 831.336 339.9 832.091C339.621 832.847 339.482 833.662 339.482 834.537C339.482 835.412 339.621 836.225 339.9 836.975C340.178 837.725 340.607 838.33 341.187 838.79C341.766 839.251 342.505 839.481 343.403 839.481ZM359.155 845.924V827.924H361.098V830.003H361.337C361.484 829.776 361.689 829.486 361.95 829.134C362.217 828.776 362.598 828.458 363.092 828.18C363.592 827.895 364.268 827.753 365.121 827.753C366.223 827.753 367.195 828.029 368.035 828.58C368.876 829.131 369.533 829.912 370.004 830.924C370.476 831.935 370.712 833.128 370.712 834.503C370.712 835.89 370.476 837.091 370.004 838.109C369.533 839.12 368.879 839.904 368.044 840.461C367.209 841.012 366.246 841.287 365.155 841.287C364.314 841.287 363.641 841.148 363.135 840.87C362.629 840.586 362.24 840.265 361.967 839.907C361.695 839.543 361.484 839.242 361.337 839.003H361.166V845.924H359.155ZM361.132 834.469C361.132 835.458 361.277 836.33 361.567 837.086C361.856 837.836 362.28 838.424 362.837 838.85C363.393 839.27 364.075 839.481 364.882 839.481C365.723 839.481 366.425 839.259 366.987 838.816C367.555 838.367 367.981 837.765 368.266 837.009C368.555 836.248 368.7 835.401 368.7 834.469C368.7 833.549 368.558 832.719 368.274 831.981C367.996 831.236 367.572 830.648 367.004 830.216C366.442 829.779 365.734 829.56 364.882 829.56C364.064 829.56 363.376 829.768 362.82 830.182C362.263 830.591 361.842 831.165 361.558 831.904C361.274 832.637 361.132 833.492 361.132 834.469ZM379.098 841.287C377.916 841.287 376.879 841.006 375.987 840.444C375.101 839.881 374.408 839.094 373.908 838.083C373.413 837.072 373.166 835.89 373.166 834.537C373.166 833.174 373.413 831.984 373.908 830.966C374.408 829.949 375.101 829.16 375.987 828.597C376.879 828.035 377.916 827.753 379.098 827.753C380.28 827.753 381.314 828.035 382.2 828.597C383.092 829.16 383.785 829.949 384.28 830.966C384.78 831.984 385.03 833.174 385.03 834.537C385.03 835.89 384.78 837.072 384.28 838.083C383.785 839.094 383.092 839.881 382.2 840.444C381.314 841.006 380.28 841.287 379.098 841.287ZM379.098 839.481C379.996 839.481 380.734 839.251 381.314 838.79C381.893 838.33 382.322 837.725 382.601 836.975C382.879 836.225 383.018 835.412 383.018 834.537C383.018 833.662 382.879 832.847 382.601 832.091C382.322 831.336 381.893 830.725 381.314 830.259C380.734 829.793 379.996 829.56 379.098 829.56C378.2 829.56 377.462 829.793 376.882 830.259C376.302 830.725 375.874 831.336 375.595 832.091C375.317 832.847 375.177 833.662 375.177 834.537C375.177 835.412 375.317 836.225 375.595 836.975C375.874 837.725 376.302 838.33 376.882 838.79C377.462 839.251 378.2 839.481 379.098 839.481ZM388.1 841.015V827.924H390.043V829.901H390.18C390.418 829.253 390.85 828.728 391.475 828.324C392.1 827.921 392.805 827.719 393.589 827.719C393.736 827.719 393.921 827.722 394.143 827.728C394.364 827.734 394.532 827.742 394.646 827.753V829.799C394.577 829.782 394.421 829.756 394.177 829.722C393.938 829.682 393.685 829.662 393.418 829.662C392.782 829.662 392.214 829.796 391.714 830.063C391.219 830.324 390.827 830.688 390.538 831.154C390.253 831.614 390.111 832.14 390.111 832.731V841.015H388.1ZM407.632 841.322C406.802 841.322 406.05 841.165 405.374 840.853C404.697 840.535 404.16 840.077 403.763 839.481C403.365 838.878 403.166 838.151 403.166 837.299C403.166 836.549 403.314 835.941 403.609 835.475C403.905 835.003 404.3 834.634 404.794 834.367C405.288 834.1 405.834 833.901 406.43 833.77C407.033 833.634 407.638 833.526 408.246 833.447C409.041 833.344 409.686 833.268 410.18 833.216C410.68 833.16 411.044 833.066 411.271 832.935C411.504 832.805 411.621 832.577 411.621 832.253V832.185C411.621 831.344 411.391 830.691 410.93 830.225C410.476 829.759 409.785 829.526 408.859 829.526C407.899 829.526 407.146 829.736 406.601 830.157C406.055 830.577 405.672 831.026 405.45 831.503L403.541 830.822C403.882 830.026 404.337 829.407 404.905 828.964C405.479 828.515 406.104 828.202 406.78 828.026C407.462 827.844 408.132 827.753 408.791 827.753C409.212 827.753 409.695 827.805 410.24 827.907C410.791 828.003 411.322 828.205 411.834 828.512C412.351 828.819 412.78 829.282 413.121 829.901C413.462 830.52 413.632 831.35 413.632 832.39V841.015H411.621V839.242H411.518C411.382 839.526 411.155 839.83 410.837 840.154C410.518 840.478 410.095 840.753 409.567 840.981C409.038 841.208 408.393 841.322 407.632 841.322ZM407.939 839.515C408.734 839.515 409.405 839.359 409.95 839.046C410.501 838.734 410.916 838.33 411.195 837.836C411.479 837.341 411.621 836.822 411.621 836.276V834.435C411.535 834.537 411.348 834.631 411.058 834.716C410.774 834.796 410.445 834.867 410.07 834.93C409.7 834.986 409.339 835.037 408.987 835.083C408.641 835.123 408.359 835.157 408.143 835.185C407.621 835.253 407.132 835.364 406.677 835.518C406.229 835.665 405.865 835.89 405.587 836.191C405.314 836.486 405.177 836.89 405.177 837.401C405.177 838.1 405.436 838.628 405.953 838.986C406.476 839.339 407.138 839.515 407.939 839.515ZM426.235 845.924V839.003H426.065C425.917 839.242 425.707 839.543 425.434 839.907C425.161 840.265 424.772 840.586 424.266 840.87C423.761 841.148 423.087 841.287 422.246 841.287C421.155 841.287 420.192 841.012 419.357 840.461C418.522 839.904 417.869 839.12 417.397 838.109C416.925 837.091 416.69 835.89 416.69 834.503C416.69 833.128 416.925 831.935 417.397 830.924C417.869 829.912 418.525 829.131 419.366 828.58C420.207 828.029 421.178 827.753 422.28 827.753C423.133 827.753 423.806 827.895 424.3 828.18C424.8 828.458 425.181 828.776 425.442 829.134C425.709 829.486 425.917 829.776 426.065 830.003H426.303V827.924H428.246V845.924H426.235ZM422.519 839.481C423.326 839.481 424.008 839.27 424.565 838.85C425.121 838.424 425.545 837.836 425.834 837.086C426.124 836.33 426.269 835.458 426.269 834.469C426.269 833.492 426.127 832.637 425.843 831.904C425.559 831.165 425.138 830.591 424.582 830.182C424.025 829.768 423.337 829.56 422.519 829.56C421.667 829.56 420.957 829.779 420.388 830.216C419.826 830.648 419.403 831.236 419.119 831.981C418.84 832.719 418.701 833.549 418.701 834.469C418.701 835.401 418.843 836.248 419.127 837.009C419.417 837.765 419.843 838.367 420.405 838.816C420.974 839.259 421.678 839.481 422.519 839.481ZM440.178 835.662V827.924H442.19V841.015H440.178V838.799H440.042C439.735 839.464 439.258 840.029 438.61 840.495C437.962 840.955 437.144 841.185 436.155 841.185C435.337 841.185 434.61 841.006 433.974 840.648C433.337 840.285 432.837 839.739 432.474 839.012C432.11 838.279 431.928 837.356 431.928 836.242V827.924H433.94V836.106C433.94 837.06 434.207 837.822 434.741 838.39C435.28 838.958 435.968 839.242 436.803 839.242C437.303 839.242 437.812 839.114 438.329 838.859C438.851 838.603 439.289 838.211 439.641 837.682C439.999 837.154 440.178 836.481 440.178 835.662ZM445.874 841.015V827.924H447.885V841.015H445.874ZM446.896 825.742C446.504 825.742 446.166 825.609 445.882 825.341C445.604 825.074 445.464 824.753 445.464 824.378C445.464 824.003 445.604 823.682 445.882 823.415C446.166 823.148 446.504 823.015 446.896 823.015C447.288 823.015 447.624 823.148 447.902 823.415C448.186 823.682 448.328 824.003 448.328 824.378C448.328 824.753 448.186 825.074 447.902 825.341C447.624 825.609 447.288 825.742 446.896 825.742ZM454.569 838.628L454.432 839.549C454.336 840.197 454.188 840.89 453.989 841.628C453.796 842.367 453.594 843.063 453.384 843.716C453.174 844.37 453.001 844.89 452.864 845.276H451.33C451.404 844.912 451.501 844.432 451.62 843.836C451.739 843.239 451.859 842.572 451.978 841.833C452.103 841.1 452.205 840.35 452.285 839.583L452.387 838.628H454.569ZM195.594 861.924V863.628H188.81V861.924H195.594ZM190.787 858.787H192.799V871.265C192.799 871.833 192.881 872.259 193.046 872.543C193.216 872.822 193.432 873.009 193.693 873.106C193.96 873.197 194.242 873.242 194.537 873.242C194.759 873.242 194.941 873.231 195.083 873.208C195.225 873.18 195.338 873.157 195.424 873.14L195.833 874.947C195.696 874.998 195.506 875.049 195.262 875.1C195.017 875.157 194.708 875.185 194.333 875.185C193.764 875.185 193.208 875.063 192.662 874.819C192.122 874.574 191.674 874.202 191.316 873.702C190.963 873.202 190.787 872.572 190.787 871.81V858.787ZM203.968 875.287C202.706 875.287 201.618 875.009 200.703 874.452C199.794 873.89 199.093 873.106 198.598 872.1C198.11 871.089 197.865 869.912 197.865 868.572C197.865 867.231 198.11 866.049 198.598 865.026C199.093 863.998 199.78 863.197 200.661 862.623C201.547 862.043 202.581 861.753 203.763 861.753C204.445 861.753 205.118 861.867 205.783 862.094C206.448 862.322 207.053 862.691 207.598 863.202C208.144 863.708 208.578 864.378 208.902 865.214C209.226 866.049 209.388 867.077 209.388 868.299V869.151H199.297V867.412H207.343C207.343 866.674 207.195 866.015 206.899 865.435C206.61 864.856 206.195 864.398 205.655 864.063C205.121 863.728 204.49 863.56 203.763 863.56C202.962 863.56 202.269 863.759 201.684 864.157C201.104 864.549 200.658 865.06 200.345 865.691C200.033 866.322 199.877 866.998 199.877 867.719V868.878C199.877 869.867 200.047 870.705 200.388 871.393C200.735 872.074 201.215 872.594 201.828 872.952C202.442 873.305 203.155 873.481 203.968 873.481C204.496 873.481 204.973 873.407 205.399 873.259C205.831 873.106 206.203 872.878 206.516 872.577C206.828 872.27 207.07 871.89 207.24 871.435L209.184 871.981C208.979 872.64 208.635 873.219 208.152 873.719C207.669 874.214 207.073 874.6 206.362 874.878C205.652 875.151 204.854 875.287 203.968 875.287ZM214.459 867.14V875.015H212.448V861.924H214.391V863.969H214.561C214.868 863.305 215.334 862.77 215.959 862.367C216.584 861.958 217.391 861.753 218.38 861.753C219.266 861.753 220.041 861.935 220.706 862.299C221.371 862.657 221.888 863.202 222.257 863.935C222.627 864.662 222.811 865.583 222.811 866.697V875.015H220.8V866.833C220.8 865.805 220.533 865.003 219.999 864.43C219.465 863.85 218.732 863.56 217.8 863.56C217.158 863.56 216.584 863.699 216.078 863.978C215.578 864.256 215.184 864.662 214.894 865.197C214.604 865.731 214.459 866.378 214.459 867.14ZM232.18 861.924V863.628H225.396V861.924H232.18ZM227.373 858.787H229.384V871.265C229.384 871.833 229.467 872.259 229.632 872.543C229.802 872.822 230.018 873.009 230.279 873.106C230.546 873.197 230.828 873.242 231.123 873.242C231.345 873.242 231.527 873.231 231.669 873.208C231.811 873.18 231.924 873.157 232.009 873.14L232.419 874.947C232.282 874.998 232.092 875.049 231.848 875.1C231.603 875.157 231.294 875.185 230.919 875.185C230.35 875.185 229.794 875.063 229.248 874.819C228.708 874.574 228.259 874.202 227.902 873.702C227.549 873.202 227.373 872.572 227.373 871.81V858.787ZM240.554 875.287C239.292 875.287 238.204 875.009 237.289 874.452C236.38 873.89 235.679 873.106 235.184 872.1C234.696 871.089 234.451 869.912 234.451 868.572C234.451 867.231 234.696 866.049 235.184 865.026C235.679 863.998 236.366 863.197 237.247 862.623C238.133 862.043 239.167 861.753 240.349 861.753C241.031 861.753 241.704 861.867 242.369 862.094C243.034 862.322 243.639 862.691 244.184 863.202C244.73 863.708 245.164 864.378 245.488 865.214C245.812 866.049 245.974 867.077 245.974 868.299V869.151H235.883V867.412H243.929C243.929 866.674 243.781 866.015 243.485 865.435C243.196 864.856 242.781 864.398 242.241 864.063C241.707 863.728 241.076 863.56 240.349 863.56C239.548 863.56 238.855 863.759 238.269 864.157C237.69 864.549 237.244 865.06 236.931 865.691C236.619 866.322 236.463 866.998 236.463 867.719V868.878C236.463 869.867 236.633 870.705 236.974 871.393C237.321 872.074 237.801 872.594 238.414 872.952C239.028 873.305 239.741 873.481 240.554 873.481C241.082 873.481 241.559 873.407 241.985 873.259C242.417 873.106 242.789 872.878 243.102 872.577C243.414 872.27 243.656 871.89 243.826 871.435L245.769 871.981C245.565 872.64 245.221 873.219 244.738 873.719C244.255 874.214 243.659 874.6 242.948 874.878C242.238 875.151 241.44 875.287 240.554 875.287ZM260.727 875.287C259.636 875.287 258.673 875.012 257.838 874.461C257.002 873.904 256.349 873.12 255.877 872.109C255.406 871.091 255.17 869.89 255.17 868.503C255.17 867.128 255.406 865.935 255.877 864.924C256.349 863.912 257.005 863.131 257.846 862.58C258.687 862.029 259.659 861.753 260.761 861.753C261.613 861.753 262.286 861.895 262.781 862.18C263.281 862.458 263.661 862.776 263.923 863.134C264.19 863.486 264.397 863.776 264.545 864.003H264.715V857.56H266.727V875.015H264.784V873.003H264.545C264.397 873.242 264.187 873.543 263.914 873.907C263.642 874.265 263.252 874.586 262.747 874.87C262.241 875.148 261.568 875.287 260.727 875.287ZM261 873.481C261.806 873.481 262.488 873.27 263.045 872.85C263.602 872.424 264.025 871.836 264.315 871.086C264.605 870.33 264.75 869.458 264.75 868.469C264.75 867.492 264.608 866.637 264.323 865.904C264.039 865.165 263.619 864.591 263.062 864.182C262.505 863.768 261.818 863.56 261 863.56C260.147 863.56 259.437 863.779 258.869 864.216C258.306 864.648 257.883 865.236 257.599 865.981C257.321 866.719 257.181 867.549 257.181 868.469C257.181 869.401 257.323 870.248 257.608 871.009C257.897 871.765 258.323 872.367 258.886 872.816C259.454 873.259 260.159 873.481 261 873.481ZM276.179 875.287C274.917 875.287 273.829 875.009 272.914 874.452C272.005 873.89 271.304 873.106 270.809 872.1C270.321 871.089 270.076 869.912 270.076 868.572C270.076 867.231 270.321 866.049 270.809 865.026C271.304 863.998 271.991 863.197 272.872 862.623C273.758 862.043 274.792 861.753 275.974 861.753C276.656 861.753 277.329 861.867 277.994 862.094C278.659 862.322 279.264 862.691 279.809 863.202C280.355 863.708 280.789 864.378 281.113 865.214C281.437 866.049 281.599 867.077 281.599 868.299V869.151H271.508V867.412H279.554C279.554 866.674 279.406 866.015 279.11 865.435C278.821 864.856 278.406 864.398 277.866 864.063C277.332 863.728 276.701 863.56 275.974 863.56C275.173 863.56 274.48 863.759 273.894 864.157C273.315 864.549 272.869 865.06 272.556 865.691C272.244 866.322 272.088 866.998 272.088 867.719V868.878C272.088 869.867 272.258 870.705 272.599 871.393C272.946 872.074 273.426 872.594 274.039 872.952C274.653 873.305 275.366 873.481 276.179 873.481C276.707 873.481 277.184 873.407 277.61 873.259C278.042 873.106 278.414 872.878 278.727 872.577C279.039 872.27 279.281 871.89 279.451 871.435L281.394 871.981C281.19 872.64 280.846 873.219 280.363 873.719C279.88 874.214 279.284 874.6 278.573 874.878C277.863 875.151 277.065 875.287 276.179 875.287ZM293.42 867.14V875.015H291.409V861.924H293.352V863.969H293.522C293.829 863.305 294.295 862.77 294.92 862.367C295.545 861.958 296.352 861.753 297.34 861.753C298.227 861.753 299.002 861.935 299.667 862.299C300.332 862.657 300.849 863.202 301.218 863.935C301.588 864.662 301.772 865.583 301.772 866.697V875.015H299.761V866.833C299.761 865.805 299.494 865.003 298.96 864.43C298.426 863.85 297.693 863.56 296.761 863.56C296.119 863.56 295.545 863.699 295.039 863.978C294.539 864.256 294.144 864.662 293.855 865.197C293.565 865.731 293.42 866.378 293.42 867.14ZM310.766 875.287C309.584 875.287 308.547 875.006 307.655 874.444C306.769 873.881 306.076 873.094 305.576 872.083C305.081 871.072 304.834 869.89 304.834 868.537C304.834 867.174 305.081 865.984 305.576 864.966C306.076 863.949 306.769 863.16 307.655 862.597C308.547 862.035 309.584 861.753 310.766 861.753C311.948 861.753 312.982 862.035 313.868 862.597C314.76 863.16 315.453 863.949 315.948 864.966C316.448 865.984 316.698 867.174 316.698 868.537C316.698 869.89 316.448 871.072 315.948 872.083C315.453 873.094 314.76 873.881 313.868 874.444C312.982 875.006 311.948 875.287 310.766 875.287ZM310.766 873.481C311.664 873.481 312.402 873.251 312.982 872.79C313.561 872.33 313.99 871.725 314.269 870.975C314.547 870.225 314.686 869.412 314.686 868.537C314.686 867.662 314.547 866.847 314.269 866.091C313.99 865.336 313.561 864.725 312.982 864.259C312.402 863.793 311.664 863.56 310.766 863.56C309.868 863.56 309.13 863.793 308.55 864.259C307.97 864.725 307.541 865.336 307.263 866.091C306.985 866.847 306.845 867.662 306.845 868.537C306.845 869.412 306.985 870.225 307.263 870.975C307.541 871.725 307.97 872.33 308.55 872.79C309.13 873.251 309.868 873.481 310.766 873.481ZM330.004 861.924L325.163 875.015H323.117L318.277 861.924H320.458L324.072 872.356H324.208L327.822 861.924H330.004ZM337.508 875.287C336.326 875.287 335.289 875.006 334.397 874.444C333.511 873.881 332.818 873.094 332.318 872.083C331.823 871.072 331.576 869.89 331.576 868.537C331.576 867.174 331.823 865.984 332.318 864.966C332.818 863.949 333.511 863.16 334.397 862.597C335.289 862.035 336.326 861.753 337.508 861.753C338.69 861.753 339.724 862.035 340.61 862.597C341.502 863.16 342.196 863.949 342.69 864.966C343.19 865.984 343.44 867.174 343.44 868.537C343.44 869.89 343.19 871.072 342.69 872.083C342.196 873.094 341.502 873.881 340.61 874.444C339.724 875.006 338.69 875.287 337.508 875.287ZM337.508 873.481C338.406 873.481 339.144 873.251 339.724 872.79C340.304 872.33 340.733 871.725 341.011 870.975C341.289 870.225 341.429 869.412 341.429 868.537C341.429 867.662 341.289 866.847 341.011 866.091C340.733 865.336 340.304 864.725 339.724 864.259C339.144 863.793 338.406 863.56 337.508 863.56C336.61 863.56 335.872 863.793 335.292 864.259C334.713 864.725 334.284 865.336 334.005 866.091C333.727 866.847 333.588 867.662 333.588 868.537C333.588 869.412 333.727 870.225 334.005 870.975C334.284 871.725 334.713 872.33 335.292 872.79C335.872 873.251 336.61 873.481 337.508 873.481ZM349.169 857.56L348.999 870.106H347.022L346.851 857.56H349.169ZM348.01 875.151C347.59 875.151 347.229 875.001 346.928 874.699C346.627 874.398 346.476 874.037 346.476 873.617C346.476 873.197 346.627 872.836 346.928 872.535C347.229 872.234 347.59 872.083 348.01 872.083C348.431 872.083 348.791 872.234 349.093 872.535C349.394 872.836 349.544 873.197 349.544 873.617C349.544 873.895 349.473 874.151 349.331 874.384C349.195 874.617 349.01 874.805 348.777 874.947C348.55 875.083 348.294 875.151 348.01 875.151Z" fill="#485550" fill-opacity="0.75"/>
<path d="M32.2854 98.8785H47.6426V101.402H32.2854L39.0531 108.169L37.2691 109.954L27.4557 100.14L37.2691 90.3268L39.0531 92.1108L32.2854 98.8785Z" fill="#417F83"/>
<path d="M151.523 92.8056C152.271 92.8056 152.982 93.0329 153.657 93.4876C154.331 93.9276 154.874 94.5289 155.285 95.2916C155.695 96.0396 155.901 96.8609 155.901 97.7556C155.901 98.6356 155.695 99.4569 155.285 100.22C154.874 100.982 154.331 101.591 153.657 102.046C152.982 102.486 152.271 102.706 151.523 102.706H147.695V106.864C147.695 107.26 147.577 107.582 147.343 107.832C147.108 108.081 146.8 108.206 146.419 108.206C146.052 108.206 145.751 108.081 145.517 107.832C145.282 107.568 145.165 107.245 145.165 106.864V94.1476C145.165 93.7662 145.289 93.4509 145.539 93.2016C145.803 92.9376 146.125 92.8056 146.507 92.8056H151.523ZM151.523 100.198C151.801 100.198 152.073 100.08 152.337 99.8456C152.615 99.6109 152.835 99.3102 152.997 98.9436C153.173 98.5622 153.261 98.1662 153.261 97.7556C153.261 97.3449 153.173 96.9562 152.997 96.5896C152.835 96.2082 152.615 95.9076 152.337 95.6876C152.073 95.4529 151.801 95.3356 151.523 95.3356H147.695V100.198H151.523ZM167.776 96.2156C168.157 96.2156 168.472 96.3402 168.722 96.5896C168.971 96.8389 169.096 97.1616 169.096 97.5576V106.864C169.096 107.245 168.971 107.568 168.722 107.832C168.472 108.081 168.157 108.206 167.776 108.206C167.394 108.206 167.079 108.081 166.83 107.832C166.595 107.582 166.47 107.267 166.456 106.886C166.089 107.311 165.59 107.678 164.96 107.986C164.344 108.279 163.691 108.426 163.002 108.426C161.99 108.426 161.073 108.169 160.252 107.656C159.43 107.128 158.778 106.402 158.294 105.478C157.824 104.554 157.59 103.505 157.59 102.332C157.59 101.158 157.824 100.11 158.294 99.1856C158.763 98.2469 159.401 97.5209 160.208 97.0076C161.029 96.4796 161.931 96.2156 162.914 96.2156C163.618 96.2156 164.278 96.3476 164.894 96.6116C165.51 96.8609 166.03 97.1836 166.456 97.5796V97.5576C166.456 97.1762 166.58 96.8609 166.83 96.6116C167.079 96.3476 167.394 96.2156 167.776 96.2156ZM163.332 106.006C164.285 106.006 165.062 105.661 165.664 104.972C166.265 104.268 166.566 103.388 166.566 102.332C166.566 101.276 166.265 100.396 165.664 99.6916C165.062 98.9876 164.285 98.6356 163.332 98.6356C162.393 98.6356 161.623 98.9876 161.022 99.6916C160.42 100.396 160.12 101.276 160.12 102.332C160.12 103.388 160.413 104.268 161 104.972C161.601 105.661 162.378 106.006 163.332 106.006ZM163.574 95.6876C163.427 95.6876 163.266 95.6216 163.09 95.4896C162.928 95.3576 162.855 95.1816 162.87 94.9616C162.87 94.8296 162.914 94.6902 163.002 94.5436L164.278 92.2996C164.424 92.0356 164.6 91.8229 164.806 91.6616C165.011 91.5002 165.238 91.4196 165.488 91.4196C165.884 91.4196 166.177 91.5222 166.368 91.7276C166.573 91.9329 166.668 92.1969 166.654 92.5196C166.624 92.8569 166.485 93.1722 166.236 93.4656L164.564 95.3136C164.329 95.5629 163.999 95.6876 163.574 95.6876ZM181.859 96.2156C182.24 96.2156 182.556 96.3402 182.805 96.5896C183.054 96.8389 183.179 97.1616 183.179 97.5576V107.348C183.179 109.137 182.622 110.457 181.507 111.308C180.407 112.173 179.006 112.606 177.305 112.606C176.865 112.606 176.256 112.532 175.479 112.386C174.716 112.239 174.174 112.092 173.851 111.946C173.132 111.638 172.773 111.212 172.773 110.67C172.773 110.567 172.795 110.45 172.839 110.318C172.927 109.995 173.074 109.746 173.279 109.57C173.499 109.408 173.734 109.328 173.983 109.328C174.13 109.328 174.269 109.35 174.401 109.394C174.46 109.408 174.819 109.54 175.479 109.79C176.154 110.054 176.762 110.186 177.305 110.186C178.39 110.186 179.197 109.966 179.725 109.526C180.268 109.1 180.539 108.492 180.539 107.7V106.644C180.216 107.098 179.725 107.509 179.065 107.876C178.42 108.242 177.723 108.426 176.975 108.426C175.948 108.426 175.01 108.169 174.159 107.656C173.323 107.128 172.663 106.402 172.179 105.478C171.695 104.554 171.453 103.505 171.453 102.332C171.453 101.158 171.688 100.11 172.157 99.1856C172.641 98.2469 173.294 97.5209 174.115 97.0076C174.951 96.4796 175.875 96.2156 176.887 96.2156C177.635 96.2156 178.332 96.3696 178.977 96.6776C179.622 96.9856 180.143 97.3596 180.539 97.7996V97.5576C180.539 97.1762 180.664 96.8609 180.913 96.6116C181.162 96.3476 181.478 96.2156 181.859 96.2156ZM177.305 106.006C178.288 106.006 179.087 105.661 179.703 104.972C180.334 104.268 180.649 103.388 180.649 102.332C180.649 101.276 180.334 100.396 179.703 99.6916C179.087 98.9876 178.288 98.6356 177.305 98.6356C176.322 98.6356 175.523 98.9876 174.907 99.6916C174.291 100.396 173.983 101.276 173.983 102.332C173.983 103.388 174.291 104.268 174.907 104.972C175.523 105.661 176.322 106.006 177.305 106.006ZM188.677 106.864C188.677 107.245 188.553 107.568 188.303 107.832C188.054 108.081 187.739 108.206 187.357 108.206C186.976 108.206 186.661 108.081 186.411 107.832C186.162 107.568 186.037 107.245 186.037 106.864V97.7776C186.037 97.3962 186.162 97.0809 186.411 96.8316C186.661 96.5676 186.976 96.4356 187.357 96.4356C187.739 96.4356 188.054 96.5676 188.303 96.8316C188.553 97.0809 188.677 97.3962 188.677 97.7776V106.864ZM187.335 95.0056C186.837 95.0056 186.485 94.9249 186.279 94.7636C186.074 94.6022 185.971 94.3162 185.971 93.9056V93.4876C185.971 93.0769 186.081 92.7909 186.301 92.6296C186.521 92.4682 186.873 92.3876 187.357 92.3876C187.871 92.3876 188.23 92.4682 188.435 92.6296C188.641 92.7909 188.743 93.0769 188.743 93.4876V93.9056C188.743 94.3309 188.633 94.6242 188.413 94.7856C188.208 94.9322 187.849 95.0056 187.335 95.0056ZM197.839 96.2156C199.335 96.2156 200.369 96.6629 200.941 97.5576C201.513 98.4376 201.799 99.6622 201.799 101.232V106.864C201.799 107.245 201.674 107.568 201.425 107.832C201.176 108.081 200.86 108.206 200.479 108.206C200.098 108.206 199.782 108.081 199.533 107.832C199.284 107.568 199.159 107.245 199.159 106.864V101.232C199.159 100.425 198.99 99.7942 198.653 99.3396C198.316 98.8702 197.736 98.6356 196.915 98.6356C196.064 98.6356 195.397 98.8849 194.913 99.3836C194.429 99.8676 194.187 100.484 194.187 101.232V106.864C194.187 107.245 194.062 107.568 193.813 107.832C193.564 108.081 193.248 108.206 192.867 108.206C192.486 108.206 192.17 108.081 191.921 107.832C191.672 107.568 191.547 107.245 191.547 106.864V97.7776C191.547 97.3962 191.672 97.0809 191.921 96.8316C192.17 96.5676 192.486 96.4356 192.867 96.4356C193.248 96.4356 193.564 96.5676 193.813 96.8316C194.062 97.0809 194.187 97.3962 194.187 97.7776V98.1516C194.583 97.6236 195.096 97.1689 195.727 96.7876C196.372 96.4062 197.076 96.2156 197.839 96.2156ZM214.335 96.2156C214.716 96.2156 215.031 96.3402 215.281 96.5896C215.53 96.8389 215.655 97.1616 215.655 97.5576V106.864C215.655 107.245 215.53 107.568 215.281 107.832C215.031 108.081 214.716 108.206 214.335 108.206C213.953 108.206 213.638 108.081 213.389 107.832C213.154 107.582 213.029 107.267 213.015 106.886C212.648 107.311 212.149 107.678 211.519 107.986C210.903 108.279 210.25 108.426 209.561 108.426C208.549 108.426 207.632 108.169 206.811 107.656C205.989 107.128 205.337 106.402 204.853 105.478C204.383 104.554 204.149 103.505 204.149 102.332C204.149 101.158 204.383 100.11 204.853 99.1856C205.322 98.2469 205.96 97.5209 206.767 97.0076C207.588 96.4796 208.49 96.2156 209.473 96.2156C210.177 96.2156 210.837 96.3476 211.453 96.6116C212.069 96.8609 212.589 97.1836 213.015 97.5796V97.5576C213.015 97.1762 213.139 96.8609 213.389 96.6116C213.638 96.3476 213.953 96.2156 214.335 96.2156ZM209.891 106.006C210.844 106.006 211.621 105.661 212.223 104.972C212.824 104.268 213.125 103.388 213.125 102.332C213.125 101.276 212.824 100.396 212.223 99.6916C211.621 98.9876 210.844 98.6356 209.891 98.6356C208.952 98.6356 208.182 98.9876 207.581 99.6916C206.979 100.396 206.679 101.276 206.679 102.332C206.679 103.388 206.972 104.268 207.559 104.972C208.16 105.661 208.937 106.006 209.891 106.006ZM231.287 96.2156C232.783 96.2156 233.817 96.6629 234.389 97.5576C234.961 98.4376 235.247 99.6622 235.247 101.232V106.864C235.247 107.245 235.122 107.568 234.873 107.832C234.623 108.081 234.308 108.206 233.927 108.206C233.545 108.206 233.23 108.081 232.981 107.832C232.731 107.568 232.607 107.245 232.607 106.864V101.232C232.607 100.425 232.438 99.7942 232.101 99.3396C231.763 98.8702 231.184 98.6356 230.363 98.6356C229.512 98.6356 228.845 98.8849 228.361 99.3836C227.877 99.8676 227.635 100.484 227.635 101.232V106.864C227.635 107.245 227.51 107.568 227.261 107.832C227.011 108.081 226.696 108.206 226.315 108.206C225.933 108.206 225.618 108.081 225.369 107.832C225.119 107.568 224.995 107.245 224.995 106.864V97.7776C224.995 97.3962 225.119 97.0809 225.369 96.8316C225.618 96.5676 225.933 96.4356 226.315 96.4356C226.696 96.4356 227.011 96.5676 227.261 96.8316C227.51 97.0809 227.635 97.3962 227.635 97.7776V98.1516C228.031 97.6236 228.544 97.1689 229.175 96.7876C229.82 96.4062 230.524 96.2156 231.287 96.2156ZM247.783 96.2156C248.164 96.2156 248.479 96.3402 248.729 96.5896C248.978 96.8389 249.103 97.1616 249.103 97.5576V106.864C249.103 107.245 248.978 107.568 248.729 107.832C248.479 108.081 248.164 108.206 247.783 108.206C247.401 108.206 247.086 108.081 246.837 107.832C246.602 107.582 246.477 107.267 246.463 106.886C246.096 107.311 245.597 107.678 244.967 107.986C244.351 108.279 243.698 108.426 243.009 108.426C241.997 108.426 241.08 108.169 240.259 107.656C239.437 107.128 238.785 106.402 238.301 105.478C237.831 104.554 237.597 103.505 237.597 102.332C237.597 101.158 237.831 100.11 238.301 99.1856C238.77 98.2469 239.408 97.5209 240.215 97.0076C241.036 96.4796 241.938 96.2156 242.921 96.2156C243.625 96.2156 244.285 96.3476 244.901 96.6116C245.517 96.8609 246.037 97.1836 246.463 97.5796V97.5576C246.463 97.1762 246.587 96.8609 246.837 96.6116C247.086 96.3476 247.401 96.2156 247.783 96.2156ZM243.339 106.006C244.292 106.006 245.069 105.661 245.671 104.972C246.272 104.268 246.573 103.388 246.573 102.332C246.573 101.276 246.272 100.396 245.671 99.6916C245.069 98.9876 244.292 98.6356 243.339 98.6356C242.4 98.6356 241.63 98.9876 241.029 99.6916C240.427 100.396 240.127 101.276 240.127 102.332C240.127 103.388 240.42 104.268 241.007 104.972C241.608 105.661 242.385 106.006 243.339 106.006ZM240.523 95.2256C240.185 95.2256 239.899 95.0936 239.665 94.8296C239.43 94.5509 239.313 94.1842 239.313 93.7296C239.313 93.2162 239.547 92.7689 240.017 92.3876C240.486 91.9916 241.153 91.7936 242.019 91.7936C242.4 91.7936 242.745 91.8742 243.053 92.0356C243.375 92.1822 243.742 92.3949 244.153 92.6736C244.402 92.8642 244.607 93.0036 244.769 93.0916C244.945 93.1796 245.106 93.2236 245.253 93.2236C245.414 93.2236 245.539 93.1796 245.627 93.0916C245.715 93.0036 245.737 92.8936 245.693 92.7616C245.663 92.6882 245.649 92.5856 245.649 92.4536C245.649 92.2189 245.722 92.0356 245.869 91.9036C246.03 91.7569 246.228 91.6836 246.463 91.6836C246.8 91.6836 247.086 91.8156 247.321 92.0796C247.555 92.3436 247.673 92.6956 247.673 93.1356C247.673 93.4142 247.585 93.7076 247.409 94.0156C247.233 94.3236 246.954 94.5876 246.573 94.8076C246.206 95.0129 245.737 95.1156 245.165 95.1156C244.871 95.1156 244.563 95.0422 244.241 94.8956C243.918 94.7489 243.537 94.5436 243.097 94.2796C242.745 94.0742 242.466 93.9276 242.261 93.8396C242.07 93.7369 241.894 93.6856 241.733 93.6856C241.571 93.6856 241.447 93.7296 241.359 93.8176C241.271 93.9056 241.249 94.0156 241.293 94.1476C241.322 94.2209 241.337 94.3236 241.337 94.4556C241.337 94.6902 241.256 94.8809 241.095 95.0276C240.948 95.1596 240.757 95.2256 240.523 95.2256ZM263.428 102.332C263.428 103.505 263.164 104.561 262.636 105.5C262.108 106.424 261.382 107.142 260.458 107.656C259.549 108.169 258.544 108.426 257.444 108.426C256.329 108.426 255.317 108.169 254.408 107.656C253.499 107.142 252.78 106.424 252.252 105.5C251.724 104.561 251.46 103.505 251.46 102.332C251.46 101.158 251.724 100.11 252.252 99.1856C252.78 98.2469 253.499 97.5209 254.408 97.0076C255.317 96.4796 256.329 96.2156 257.444 96.2156C258.544 96.2156 259.549 96.4796 260.458 97.0076C261.382 97.5209 262.108 98.2469 262.636 99.1856C263.164 100.11 263.428 101.158 263.428 102.332ZM260.788 102.332C260.788 101.613 260.634 100.975 260.326 100.418C260.033 99.8456 259.629 99.4056 259.116 99.0976C258.617 98.7896 258.06 98.6356 257.444 98.6356C256.828 98.6356 256.263 98.7896 255.75 99.0976C255.251 99.4056 254.848 99.8456 254.54 100.418C254.247 100.975 254.1 101.613 254.1 102.332C254.1 103.05 254.247 103.688 254.54 104.246C254.848 104.803 255.251 105.236 255.75 105.544C256.263 105.852 256.828 106.006 257.444 106.006C258.06 106.006 258.617 105.852 259.116 105.544C259.629 105.236 260.033 104.803 260.326 104.246C260.634 103.688 260.788 103.05 260.788 102.332ZM282.673 102.046C282.658 102.398 282.519 102.684 282.255 102.904C281.991 103.124 281.683 103.234 281.331 103.234H274.071C274.247 104.099 274.65 104.781 275.281 105.28C275.911 105.764 276.623 106.006 277.415 106.006C278.016 106.006 278.485 105.954 278.823 105.852C279.16 105.734 279.424 105.617 279.615 105.5C279.82 105.368 279.959 105.28 280.033 105.236C280.297 105.104 280.546 105.038 280.781 105.038C281.089 105.038 281.353 105.148 281.573 105.368C281.793 105.588 281.903 105.844 281.903 106.138C281.903 106.534 281.697 106.893 281.287 107.216C280.876 107.553 280.326 107.839 279.637 108.074C278.947 108.308 278.251 108.426 277.547 108.426C276.315 108.426 275.237 108.169 274.313 107.656C273.403 107.142 272.699 106.438 272.201 105.544C271.702 104.634 271.453 103.615 271.453 102.486C271.453 101.224 271.717 100.117 272.245 99.1636C272.773 98.2102 273.469 97.4842 274.335 96.9856C275.2 96.4722 276.124 96.2156 277.107 96.2156C278.075 96.2156 278.984 96.4796 279.835 97.0076C280.7 97.5356 281.389 98.2469 281.903 99.1416C282.416 100.036 282.673 101.004 282.673 102.046ZM277.107 98.6356C275.405 98.6356 274.401 99.4349 274.093 101.034H279.857V100.88C279.798 100.264 279.497 99.7356 278.955 99.2956C278.412 98.8556 277.796 98.6356 277.107 98.6356ZM291.323 96.2156C292.819 96.2156 293.853 96.6629 294.425 97.5576C294.997 98.4376 295.283 99.6622 295.283 101.232V106.864C295.283 107.245 295.158 107.568 294.909 107.832C294.659 108.081 294.344 108.206 293.963 108.206C293.581 108.206 293.266 108.081 293.017 107.832C292.767 107.568 292.643 107.245 292.643 106.864V101.232C292.643 100.425 292.474 99.7942 292.137 99.3396C291.799 98.8702 291.22 98.6356 290.399 98.6356C289.548 98.6356 288.881 98.8849 288.397 99.3836C287.913 99.8676 287.671 100.484 287.671 101.232V106.864C287.671 107.245 287.546 107.568 287.297 107.832C287.047 108.081 286.732 108.206 286.351 108.206C285.969 108.206 285.654 108.081 285.405 107.832C285.155 107.568 285.031 107.245 285.031 106.864V97.7776C285.031 97.3962 285.155 97.0809 285.405 96.8316C285.654 96.5676 285.969 96.4356 286.351 96.4356C286.732 96.4356 287.047 96.5676 287.297 96.8316C287.546 97.0809 287.671 97.3962 287.671 97.7776V98.1516C288.067 97.6236 288.58 97.1689 289.211 96.7876C289.856 96.4062 290.56 96.2156 291.323 96.2156ZM303.419 96.2156C304.665 96.2156 305.67 96.4136 306.433 96.8096C307.195 97.1909 307.577 97.7042 307.577 98.3496C307.577 98.6722 307.481 98.9582 307.291 99.2076C307.1 99.4422 306.851 99.5596 306.543 99.5596C306.308 99.5596 306.117 99.5302 305.971 99.4716C305.824 99.3982 305.677 99.3102 305.531 99.2076C305.399 99.0902 305.267 98.9949 305.135 98.9216C304.988 98.8482 304.768 98.7822 304.475 98.7236C304.196 98.6649 303.969 98.6356 303.793 98.6356C302.693 98.6356 301.827 98.9802 301.197 99.6696C300.581 100.344 300.273 101.232 300.273 102.332C300.273 103.388 300.588 104.268 301.219 104.972C301.849 105.661 302.656 106.006 303.639 106.006C304.357 106.006 304.893 105.918 305.245 105.742C305.333 105.698 305.45 105.624 305.597 105.522C305.758 105.404 305.905 105.316 306.037 105.258C306.169 105.199 306.33 105.17 306.521 105.17C306.887 105.17 307.173 105.287 307.379 105.522C307.599 105.756 307.709 106.057 307.709 106.424C307.709 106.776 307.503 107.106 307.093 107.414C306.682 107.722 306.139 107.971 305.465 108.162C304.79 108.338 304.071 108.426 303.309 108.426C302.179 108.426 301.182 108.162 300.317 107.634C299.466 107.106 298.806 106.38 298.337 105.456C297.867 104.517 297.633 103.476 297.633 102.332C297.633 101.144 297.875 100.088 298.359 99.1636C298.857 98.2396 299.547 97.5209 300.427 97.0076C301.307 96.4796 302.304 96.2156 303.419 96.2156ZM321.079 102.332C321.079 103.505 320.815 104.561 320.287 105.5C319.759 106.424 319.033 107.142 318.109 107.656C317.2 108.169 316.195 108.426 315.095 108.426C313.981 108.426 312.969 108.169 312.059 107.656C311.15 107.142 310.431 106.424 309.903 105.5C309.375 104.561 309.111 103.505 309.111 102.332C309.111 101.158 309.375 100.11 309.903 99.1856C310.431 98.2469 311.15 97.5209 312.059 97.0076C312.969 96.4796 313.981 96.2156 315.095 96.2156C316.195 96.2156 317.2 96.4796 318.109 97.0076C319.033 97.5209 319.759 98.2469 320.287 99.1856C320.815 100.11 321.079 101.158 321.079 102.332ZM318.439 102.332C318.439 101.613 318.285 100.975 317.977 100.418C317.684 99.8456 317.281 99.4056 316.767 99.0976C316.269 98.7896 315.711 98.6356 315.095 98.6356C314.479 98.6356 313.915 98.7896 313.401 99.0976C312.903 99.4056 312.499 99.8456 312.191 100.418C311.898 100.975 311.751 101.613 311.751 102.332C311.751 103.05 311.898 103.688 312.191 104.246C312.499 104.803 312.903 105.236 313.401 105.544C313.915 105.852 314.479 106.006 315.095 106.006C315.711 106.006 316.269 105.852 316.767 105.544C317.281 105.236 317.684 104.803 317.977 104.246C318.285 103.688 318.439 103.05 318.439 102.332ZM329.733 96.2156C331.229 96.2156 332.263 96.6629 332.835 97.5576C333.407 98.4376 333.693 99.6622 333.693 101.232V106.864C333.693 107.245 333.569 107.568 333.319 107.832C333.07 108.081 332.755 108.206 332.373 108.206C331.992 108.206 331.677 108.081 331.427 107.832C331.178 107.568 331.053 107.245 331.053 106.864V101.232C331.053 100.425 330.885 99.7942 330.547 99.3396C330.21 98.8702 329.631 98.6356 328.809 98.6356C327.959 98.6356 327.291 98.8849 326.807 99.3836C326.323 99.8676 326.081 100.484 326.081 101.232V106.864C326.081 107.245 325.957 107.568 325.707 107.832C325.458 108.081 325.143 108.206 324.761 108.206C324.38 108.206 324.065 108.081 323.815 107.832C323.566 107.568 323.441 107.245 323.441 106.864V97.7776C323.441 97.3962 323.566 97.0809 323.815 96.8316C324.065 96.5676 324.38 96.4356 324.761 96.4356C325.143 96.4356 325.458 96.5676 325.707 96.8316C325.957 97.0809 326.081 97.3962 326.081 97.7776V98.1516C326.477 97.6236 326.991 97.1689 327.621 96.7876C328.267 96.4062 328.971 96.2156 329.733 96.2156ZM342.379 105.72C342.585 105.72 342.768 105.822 342.929 106.028C343.105 106.218 343.193 106.475 343.193 106.798C343.193 107.194 342.973 107.531 342.533 107.81C342.108 108.074 341.624 108.206 341.081 108.206C340.172 108.206 339.402 108.015 338.771 107.634C338.155 107.238 337.847 106.409 337.847 105.148V99.0756H336.835C336.483 99.0756 336.19 98.9582 335.955 98.7236C335.721 98.4889 335.603 98.1956 335.603 97.8436C335.603 97.5062 335.721 97.2276 335.955 97.0076C336.19 96.7729 336.483 96.6556 336.835 96.6556H337.847V95.2476C337.847 94.8662 337.972 94.5509 338.221 94.3016C338.485 94.0376 338.808 93.9056 339.189 93.9056C339.556 93.9056 339.864 94.0376 340.113 94.3016C340.363 94.5509 340.487 94.8662 340.487 95.2476V96.6556H342.049C342.401 96.6556 342.695 96.7729 342.929 97.0076C343.164 97.2422 343.281 97.5356 343.281 97.8876C343.281 98.2249 343.164 98.5109 342.929 98.7456C342.695 98.9656 342.401 99.0756 342.049 99.0756H340.487V105.038C340.487 105.346 340.568 105.573 340.729 105.72C340.891 105.852 341.111 105.918 341.389 105.918C341.507 105.918 341.668 105.888 341.873 105.83C342.049 105.756 342.218 105.72 342.379 105.72ZM351.978 96.2156C352.418 96.2156 352.784 96.3402 353.078 96.5896C353.386 96.8389 353.54 97.1322 353.54 97.4696C353.54 97.9242 353.422 98.2689 353.188 98.5036C352.953 98.7236 352.674 98.8336 352.352 98.8336C352.132 98.8336 351.882 98.7822 351.604 98.6796C351.56 98.6649 351.457 98.6356 351.296 98.5916C351.149 98.5476 350.988 98.5256 350.812 98.5256C350.43 98.5256 350.064 98.6429 349.712 98.8776C349.36 99.1122 349.066 99.4716 348.832 99.9556C348.612 100.425 348.502 100.99 348.502 101.65V106.864C348.502 107.245 348.377 107.568 348.128 107.832C347.878 108.081 347.563 108.206 347.182 108.206C346.8 108.206 346.485 108.081 346.236 107.832C345.986 107.568 345.862 107.245 345.862 106.864V97.7776C345.862 97.3962 345.986 97.0809 346.236 96.8316C346.485 96.5676 346.8 96.4356 347.182 96.4356C347.563 96.4356 347.878 96.5676 348.128 96.8316C348.377 97.0809 348.502 97.3962 348.502 97.7776V98.0636C348.839 97.4622 349.323 97.0076 349.954 96.6996C350.584 96.3769 351.259 96.2156 351.978 96.2156ZM364.825 96.2156C365.207 96.2156 365.522 96.3402 365.771 96.5896C366.021 96.8389 366.145 97.1616 366.145 97.5576V106.864C366.145 107.245 366.021 107.568 365.771 107.832C365.522 108.081 365.207 108.206 364.825 108.206C364.444 108.206 364.129 108.081 363.879 107.832C363.645 107.582 363.52 107.267 363.505 106.886C363.139 107.311 362.64 107.678 362.009 107.986C361.393 108.279 360.741 108.426 360.051 108.426C359.039 108.426 358.123 108.169 357.301 107.656C356.48 107.128 355.827 106.402 355.343 105.478C354.874 104.554 354.639 103.505 354.639 102.332C354.639 101.158 354.874 100.11 355.343 99.1856C355.813 98.2469 356.451 97.5209 357.257 97.0076C358.079 96.4796 358.981 96.2156 359.963 96.2156C360.667 96.2156 361.327 96.3476 361.943 96.6116C362.559 96.8609 363.08 97.1836 363.505 97.5796V97.5576C363.505 97.1762 363.63 96.8609 363.879 96.6116C364.129 96.3476 364.444 96.2156 364.825 96.2156ZM360.381 106.006C361.335 106.006 362.112 105.661 362.713 104.972C363.315 104.268 363.615 103.388 363.615 102.332C363.615 101.276 363.315 100.396 362.713 99.6916C362.112 98.9876 361.335 98.6356 360.381 98.6356C359.443 98.6356 358.673 98.9876 358.071 99.6916C357.47 100.396 357.169 101.276 357.169 102.332C357.169 103.388 357.463 104.268 358.049 104.972C358.651 105.661 359.428 106.006 360.381 106.006ZM378.689 91.9256C379.07 91.9256 379.385 92.0502 379.635 92.2996C379.884 92.5489 380.009 92.8716 380.009 93.2676V106.864C380.009 107.245 379.884 107.568 379.635 107.832C379.385 108.081 379.07 108.206 378.689 108.206C378.307 108.206 377.992 108.081 377.743 107.832C377.508 107.582 377.383 107.267 377.369 106.886C377.002 107.311 376.503 107.678 375.873 107.986C375.257 108.279 374.604 108.426 373.915 108.426C372.903 108.426 371.986 108.169 371.165 107.656C370.343 107.128 369.691 106.402 369.207 105.478C368.737 104.554 368.503 103.505 368.503 102.332C368.503 101.158 368.737 100.11 369.207 99.1856C369.676 98.2469 370.314 97.5209 371.121 97.0076C371.942 96.4796 372.844 96.2156 373.827 96.2156C374.531 96.2156 375.191 96.3476 375.807 96.6116C376.423 96.8609 376.943 97.1836 377.369 97.5796V93.2676C377.369 92.8862 377.493 92.5709 377.743 92.3216C377.992 92.0576 378.307 91.9256 378.689 91.9256ZM374.245 106.006C375.198 106.006 375.975 105.661 376.577 104.972C377.178 104.268 377.479 103.388 377.479 102.332C377.479 101.276 377.178 100.396 376.577 99.6916C375.975 98.9876 375.198 98.6356 374.245 98.6356C373.306 98.6356 372.536 98.9876 371.935 99.6916C371.333 100.396 371.033 101.276 371.033 102.332C371.033 103.388 371.326 104.268 371.913 104.972C372.514 105.661 373.291 106.006 374.245 106.006ZM392.552 96.2156C392.933 96.2156 393.249 96.3402 393.498 96.5896C393.747 96.8389 393.872 97.1616 393.872 97.5576V106.864C393.872 107.245 393.747 107.568 393.498 107.832C393.249 108.081 392.933 108.206 392.552 108.206C392.171 108.206 391.855 108.081 391.606 107.832C391.371 107.582 391.247 107.267 391.232 106.886C390.865 107.311 390.367 107.678 389.736 107.986C389.12 108.279 388.467 108.426 387.778 108.426C386.766 108.426 385.849 108.169 385.028 107.656C384.207 107.128 383.554 106.402 383.07 105.478C382.601 104.554 382.366 103.505 382.366 102.332C382.366 101.158 382.601 100.11 383.07 99.1856C383.539 98.2469 384.177 97.5209 384.984 97.0076C385.805 96.4796 386.707 96.2156 387.69 96.2156C388.394 96.2156 389.054 96.3476 389.67 96.6116C390.286 96.8609 390.807 97.1836 391.232 97.5796V97.5576C391.232 97.1762 391.357 96.8609 391.606 96.6116C391.855 96.3476 392.171 96.2156 392.552 96.2156ZM388.108 106.006C389.061 106.006 389.839 105.661 390.44 104.972C391.041 104.268 391.342 103.388 391.342 102.332C391.342 101.276 391.041 100.396 390.44 99.6916C389.839 98.9876 389.061 98.6356 388.108 98.6356C387.169 98.6356 386.399 98.9876 385.798 99.6916C385.197 100.396 384.896 101.276 384.896 102.332C384.896 103.388 385.189 104.268 385.776 104.972C386.377 105.661 387.155 106.006 388.108 106.006Z" fill="#417F83"/>
<path d="M47.5128 30.3656C47.6138 30.9207 47.8409 31.3497 48.1942 31.6525C48.56 31.9427 49.0458 32.0878 49.6514 32.0878C50.4336 32.0878 51.0014 31.766 51.3547 31.1226C51.7079 30.4665 51.8846 29.3688 51.8846 27.8296C51.5944 28.2333 51.1843 28.5487 50.6544 28.7758C50.1371 29.0029 49.5757 29.1165 48.9701 29.1165C48.1626 29.1165 47.4308 28.9525 46.7748 28.6244C46.1313 28.2838 45.6203 27.7854 45.2418 27.1294C44.8633 26.4607 44.6741 25.6532 44.6741 24.7069C44.6741 23.3065 45.0904 22.1962 45.9231 21.3761C46.7558 20.5434 47.8913 20.127 49.3297 20.127C51.1213 20.127 52.3829 20.7011 53.1147 21.8492C53.8591 22.9973 54.2313 24.7258 54.2313 27.0347C54.2313 28.6749 54.0862 30.0186 53.796 31.0658C53.5184 32.113 53.0327 32.9079 52.3388 33.4504C51.6575 33.9929 50.7238 34.2642 49.5378 34.2642C48.6042 34.2642 47.8093 34.0875 47.1533 33.7343C46.4972 33.3684 45.9925 32.8952 45.6392 32.3149C45.2986 31.7219 45.103 31.0721 45.0526 30.3656H47.5128ZM49.5189 26.959C50.175 26.959 50.6923 26.7572 51.0708 26.3534C51.4493 25.9497 51.6385 25.4072 51.6385 24.7258C51.6385 23.9815 51.4367 23.4074 51.0329 23.0036C50.6418 22.5873 50.1056 22.3791 49.4243 22.3791C48.743 22.3791 48.2005 22.5936 47.7967 23.0226C47.4056 23.4389 47.21 23.9941 47.21 24.688C47.21 25.3567 47.3993 25.9055 47.7778 26.3345C48.1689 26.7508 48.7493 26.959 49.5189 26.959ZM57.3914 34.3777C56.9119 34.3777 56.5145 34.2326 56.1991 33.9424C55.8963 33.6396 55.7449 33.2674 55.7449 32.8258C55.7449 32.3843 55.8963 32.0184 56.1991 31.7282C56.5145 31.4254 56.9119 31.274 57.3914 31.274C57.8582 31.274 58.243 31.4254 58.5458 31.7282C58.8486 32.0184 59 32.3843 59 32.8258C59 33.2674 58.8486 33.6396 58.5458 33.9424C58.243 34.2326 57.8582 34.3777 57.3914 34.3777ZM57.3914 26.5427C56.9119 26.5427 56.5145 26.3976 56.1991 26.1074C55.8963 25.8046 55.7449 25.4324 55.7449 24.9908C55.7449 24.5492 55.8963 24.1833 56.1991 23.8931C56.5145 23.5903 56.9119 23.4389 57.3914 23.4389C57.8582 23.4389 58.243 23.5903 58.5458 23.8931C58.8486 24.1833 59 24.5492 59 24.9908C59 25.4324 58.8486 25.8046 58.5458 26.1074C58.243 26.3976 57.8582 26.5427 57.3914 26.5427ZM60.3947 31.5579V29.4761L66.5833 20.6191H69.6681V29.249H71.3335V31.5579H69.6681V34.2452H67.0185V31.5579H60.3947ZM67.1889 23.4579L63.3092 29.249H67.1889V23.4579ZM72.3201 22.8901V20.4487H76.8811V34.2452H74.1559V22.8901H72.3201Z" fill="#417F83"/>
<rect opacity="0.35" x="492.255" y="22.5" width="26.4953" height="13.0374" rx="2.73364" stroke="#417F83" stroke-width="1.26168"/>
<path opacity="0.4" d="M520.642 26.4954V31.5421C521.658 31.1147 522.318 30.1203 522.318 29.0187C522.318 27.9171 521.658 26.9228 520.642 26.4954Z" fill="#417F83"/>
<rect x="494.147" y="24.3925" width="22.7103" height="9.25234" rx="1.68224" fill="#417F83"/>
<path d="M472.844 32.4978C474.46 31.1323 476.827 31.1323 478.442 32.4978C478.524 32.5712 478.571 32.6755 478.573 32.7849C478.575 32.8941 478.532 32.9994 478.454 33.0759L475.924 35.6277C475.85 35.7024 475.749 35.7448 475.644 35.7449C475.538 35.7449 475.436 35.7025 475.362 35.6277L472.832 33.0759C472.754 32.9992 472.711 32.8934 472.713 32.7839C472.715 32.6747 472.763 32.5711 472.844 32.4978ZM469.468 29.0945C472.949 25.859 478.34 25.859 481.821 29.0945C481.9 29.1703 481.945 29.2744 481.946 29.3836C481.947 29.4927 481.904 29.5981 481.827 29.6755L480.364 31.1521C480.214 31.3027 479.97 31.3057 479.815 31.1589C478.672 30.1249 477.186 29.5525 475.644 29.5525C474.102 29.5531 472.616 30.1254 471.474 31.1589C471.319 31.3057 471.076 31.3027 470.925 31.1521L469.463 29.6755C469.386 29.5982 469.343 29.4928 469.344 29.3836C469.345 29.2745 469.389 29.1703 469.468 29.0945ZM466.092 25.7C471.431 20.5878 479.854 20.5879 485.193 25.7C485.271 25.7758 485.315 25.8798 485.315 25.988C485.316 26.0962 485.273 26.2003 485.197 26.2771L483.732 27.7546C483.582 27.9057 483.337 27.9076 483.184 27.7586C481.149 25.8263 478.45 24.748 475.644 24.7478C472.836 24.7478 470.136 25.826 468.102 27.7586C467.949 27.9078 467.704 27.9061 467.553 27.7546L466.088 26.2771C466.012 26.2002 465.969 26.0962 465.97 25.988C465.97 25.8798 466.015 25.7758 466.092 25.7Z" fill="#417F83"/>
<path d="M440.736 30.7008C441.433 30.7008 441.998 31.2658 441.998 31.9625V34.486C441.998 35.1827 441.433 35.7477 440.736 35.7477H439.474C438.778 35.7477 438.213 35.1828 438.213 34.486V31.9625C438.213 31.2657 438.778 30.7008 439.474 30.7008H440.736ZM446.624 28.1774C447.321 28.1774 447.885 28.7423 447.885 29.4391V34.486C447.885 35.1828 447.321 35.7477 446.624 35.7477H445.362C444.665 35.7476 444.1 35.1827 444.1 34.486V29.4391C444.1 28.7424 444.665 28.1774 445.362 28.1774H446.624ZM452.511 25.234C453.208 25.234 453.773 25.7989 453.773 26.4957V34.486C453.773 35.1828 453.208 35.7477 452.511 35.7477H451.25C450.553 35.7475 449.988 35.1826 449.988 34.486V26.4957C449.988 25.799 450.553 25.2342 451.25 25.234H452.511ZM458.399 22.2897C459.096 22.2897 459.661 22.8546 459.661 23.5514V34.486C459.661 35.1828 459.096 35.7477 458.399 35.7477H457.137C456.441 35.7474 455.877 35.1826 455.877 34.486V23.5514C455.877 22.8547 456.441 22.2899 457.137 22.2897H458.399Z" fill="#417F83"/>
</g>
<defs>
<radialGradient id="paint0_radial_17_51" cx="0" cy="0" r="1" gradientUnits="userSpaceOnUse" gradientTransform="translate(270 484.775) rotate(90) scale(230.53 294.081)">
<stop offset="0.500487" stop-color="white" stop-opacity="0.29"/>
<stop offset="1" stop-color="white"/>
</radialGradient>
<clipPath id="clip0_17_51">
<rect width="540" height="1168" rx="8" fill="white"/>
</clipPath>
</defs>
</svg>
